<?xml version="1.0" encoding="UTF-8"?>
<svg id="_レイヤー_1" data-name="レイヤー_1" xmlns="http://www.w3.org/2000/svg" xmlns:xlink="http://www.w3.org/1999/xlink" version="1.1" viewBox="0 0 303.3 262.1">
  <!-- Generator: Adobe Illustrator 30.5.1, SVG Export Plug-In . SVG Version: 2.1.4 Build 3)  -->
  <defs>
    <style>
      .st0 {
        fill: #fff;
      }

      .st1 {
        fill: url(#_名称未設定グラデーション_22);
      }
    </style>
    <linearGradient id="_名称未設定グラデーション_22" data-name="名称未設定グラデーション 22" x1="0" y1="131" x2="303.3" y2="131" gradientUnits="userSpaceOnUse">
      <stop offset="0" stop-color="#eb420a"/>
      <stop offset="1" stop-color="#e9290d"/>
    </linearGradient>
  <filter id="hd" x="-25%" y="-25%" width="150%" height="150%" primitiveUnits="userSpaceOnUse" color-interpolation-filters="sRGB"><feTurbulence type="fractalNoise" baseFrequency="0.013" numOctaves="2" seed="11" result="t"/><feDisplacementMap in="SourceGraphic" in2="t" scale="8.5" xChannelSelector="R" yChannelSelector="G"/></filter></defs>
  <g filter="url(#hd)"><g id="c"><path class="st0" d="M302,45.6c-.2-.2-.5-.2-.8-.3-.4-.4-.8-.7-1.3-.9L154.9.1c-.6-.2-1.2-.2-1.8,0L2.3,44.5c-1.7.5-2.7,2.3-2.2,4,0,.1.1.2.1.3-.1.3-.3.6-.3.9v159.2c0,1.4.9,2.6,2.2,3l148.4,50s0,0,0,0c.3.1.7.2,1,.2s0,0,.1,0c.3,0,.6,0,.9-.1,0,0,0,0,0,0l146.9-51.5c1.3-.4,2.1-1.6,2.1-3l1.5-159.2c0-1-.5-2-1.3-2.6h0Z"/><path class="st1" d="M302,45.6c-.2-.2-.5-.2-.8-.3-.4-.4-.8-.7-1.3-.9L154.9.1c-.6-.2-1.2-.2-1.8,0L2.3,44.5c-1.7.5-2.7,2.3-2.2,4,0,.1.1.2.1.3-.1.3-.3.6-.3.9v159.2c0,1.4.9,2.6,2.2,3l148.4,50s0,0,0,0c.3.1.7.2,1,.2s0,0,.1,0c.3,0,.6,0,.9-.1,0,0,0,0,0,0l146.9-51.5c1.3-.4,2.1-1.6,2.1-3l1.5-159.2c0-1-.5-2-1.3-2.6h0ZM148.4,254.4L6.4,206.6V53.8l142,39.1v161.5h0ZM153.1,87.7c-.2-.1-.4-.2-.7-.3L11.3,48.5l74.5-21.9,134.1,41.6-66.8,19.5h0ZM231.1,64.9L96.9,23.3l57-16.8,135.5,41.4-58.3,17h0Z"/><path class="st0" d="M153.1,87.7c-.2-.1-.4-.2-.7-.3L11.3,48.5l74.5-21.9,134.1,41.6-66.8,19.5h0Z"/><polygon class="st0" points="231.1 64.9 96.9 23.3 153.9 6.6 289.4 47.9 231.1 64.9"/></g></g><path class="st1" d="M21.3,131.3c.9.2,1.5,0,2.3-.8,1.9-2,3.4-3.8,5-5.9l-.9,42c0,3,.9,4.7,2.8,5.2,1.9.5,3.1-.8,3.1-3.7l1.2-48.6c0-3.1-1-5.6-3.2-6.1-1.6-.4-2.6.3-3.8,1.7-2.7,3.1-5.1,5.4-7.9,8.1-.9.9-1.2,1.7-1.2,3.3,0,2.5,1,4.4,2.7,4.8h0ZM59.3,156.7c2.4.6,4,.2,5.8-1.2-2.4,6.2-6,10.8-10.8,14.9-.7.6-1,1.6-1,2.9,0,2.1,1.1,4.2,2.8,4.6.6.1,1.2,0,1.8-.6,4.5-4.1,8.6-9.6,11.2-15.8,2.9-6.9,4.1-12,4.4-20.2.4-10.4-4.7-19.8-12.4-21.5-7.8-1.8-13.2,4.8-13.5,15.5-.3,11.2,4,19.6,11.8,21.4h0ZM60.8,127.2c4.2,1,6.9,6.4,6.7,13.1,0,2.3-.2,4.2-.6,6.1-1.4,2.7-3.8,4-7.1,3.3-4-.9-6.6-5.8-6.4-12.7.2-6.8,3-10.9,7.4-9.9h0ZM80.9,133.7l16.6,3.8c-5.2,13.7-10.3,27-15.1,40.1-.4,1.1-.7,2.1-.7,2.9,0,2.4,1.5,4.3,3.3,4.7,1.4.3,2.3-.5,2.9-2.1,5-14.4,9.6-26.9,14.7-40.5.7-1.9,1.3-3.9,1.4-6.2.1-3.2-1.3-5.8-3.7-6.4l-19-4.3c-1.6-.4-2.5.9-2.6,3.5,0,2.4.7,4.2,2.3,4.6h0ZM120.6,194.4c7.8,1.9,13.7-4.9,14.3-15.9.6-11.4-4.3-19.8-11.8-21.5-1.7-.4-2.9-.2-4.6.9,3.1-5.4,7.2-10.4,12.1-14.6.6-.5,1.1-1.4,1.1-2.7.1-2.4-1-4.8-2.8-5.2-.8-.2-1.5.2-2,.7-4.8,4.7-9.1,10-12.5,16.2-4.1,7.9-5.5,12.5-5.8,19.7-.6,11.8,4.3,20.7,12.1,22.6h0ZM114.4,173.3c.1-2.6.4-4.2,1-6.1,1.6-2.7,4.2-4,7.1-3.3,4.1,1,6.6,6,6.3,13-.4,7.2-3.4,11.1-7.8,10.1-4.4-1.1-6.9-6.2-6.5-13.7h0Z"/>
</svg>