<?xml version="1.0" encoding="UTF-8"?>
<svg id="_レイヤー_1" data-name="レイヤー_1" xmlns="http://www.w3.org/2000/svg" xmlns:xlink="http://www.w3.org/1999/xlink" version="1.1" viewBox="0 0 402.5 338.5">
  <!-- Generator: Adobe Illustrator 30.5.1, SVG Export Plug-In . SVG Version: 2.1.4 Build 3)  -->
  <defs>
    <style>
      .st0 {
        fill: #fff;
      }

      .st1 {
        fill: url(#_名称未設定グラデーション_22);
      }
    </style>
    <linearGradient id="_名称未設定グラデーション_22" data-name="名称未設定グラデーション 22" x1="0" y1="597.3" x2="402.5" y2="597.3" gradientTransform="translate(0 -428)" gradientUnits="userSpaceOnUse">
      <stop offset="0" stop-color="#eb4509"/>
      <stop offset="1" stop-color="#e9240d"/>
    </linearGradient>
  <filter id="hd" x="-25%" y="-25%" width="150%" height="150%" primitiveUnits="userSpaceOnUse" color-interpolation-filters="sRGB"><feTurbulence type="fractalNoise" baseFrequency="0.013" numOctaves="2" seed="13" result="t"/><feDisplacementMap in="SourceGraphic" in2="t" scale="8.5" xChannelSelector="R" yChannelSelector="G"/></filter></defs>
  <g filter="url(#hd)"><g id="c"><path class="st0" d="M402.1,74.7c-.7-1.3-2.2-1.9-3.7-1.5l-25.7,7.3,23.1-33.9c.6-.9.7-1.9.4-2.9-.4-1-1.1-1.7-2.1-2L248.7.1c-1.4-.4-2.8.2-3.6,1.4l-40.5,64.2c0,0,0-.2-.2-.4L166,2.3c-.7-1.2-2.2-1.8-3.6-1.4L6.3,43.2c-1,.3-1.8,1-2.2,2-.4,1-.2,2,.3,2.9l22,32.9-22.4-6.2c-1.4-.4-2.9.2-3.6,1.5-.7,1.3-.5,2.9.6,3.9l46.9,45.4c.2.2.4.3.6.4v159.5c0,1.4.9,2.6,2.2,3l148.4,50h2.1l146.9-51.5c1.3-.4,2.1-1.6,2.1-3l1.5-157.8,49.8-47.5c1.1-1,1.3-2.6.6-3.9h0Z"/><path class="st1" d="M402.1,74.7c-.7-1.3-2.2-1.9-3.7-1.5l-25.7,7.3,23.1-33.9c.6-.9.7-1.9.4-2.9-.4-1-1.1-1.7-2.1-2L248.7.1c-1.4-.4-2.8.2-3.6,1.4l-40.5,64.2c0,0,0-.2-.2-.4L166,2.3c-.7-1.2-2.2-1.8-3.6-1.4L6.3,43.2c-1,.3-1.8,1-2.2,2-.4,1-.2,2,.3,2.9l22,32.9-22.4-6.2c-1.4-.4-2.9.2-3.6,1.5-.7,1.3-.5,2.9.6,3.9l46.9,45.4c.2.2.4.3.6.4v159.5c0,1.4.9,2.6,2.2,3l148.4,50h2.1l146.9-51.5c1.3-.4,2.1-1.6,2.1-3l1.5-157.8,49.8-47.5c1.1-1,1.3-2.6.6-3.9h0ZM249.3,6.9l138.8,39.6-24.4,35.9c-.1.2-.3.4-.3.7l-56.2,15.9-97.1-30L249.3,6.9ZM198.6,160.9l-43.8-43.8c-.4-.4-.9-.7-1.4-.8l-49.3-13.7,98.5-29h0c-1,.6-1.7,1.6-1.7,2.8v87.6l-1.3-.4c0-.9-.2-1.9-.9-2.6h-.1ZM206.9,74.8l88.9,27.5-51.9,14.7c-.5.2-1,.5-1.4.9l-35.2,36.6v-78.2c0-.5-.1-1-.4-1.4h0ZM12.3,48.2L161.8,7.7l36.7,60.2-103.8,30.6c-.6.2-1.1.5-1.5.9l-57.2-15.9L12.3,48.2ZM53.4,123.3c0-.9-.3-1.8-1-2.4L14.6,84.3l17.9,5c.5.3,1,.5,1.6.5h0l116.7,32.5,38.5,38.5L53.9,123.4c-.2,0-.3,0-.5,0h0ZM197,330.9l-142-47.8v-152.8l142,39.1v161.5h0ZM346.9,121.8l-138,40.1,37.6-39,141.3-40.1-40.8,39h-.1Z"/></g></g><path class="st1" d="M77.2,201.2c-1.6,2-3.1,3.9-5,5.9-.7.8-1.4,1-2.3.8-1.7-.4-2.8-2.4-2.7-4.8,0-1.5.3-2.4,1.2-3.3,2.8-2.6,5.1-5,7.9-8.1,1.2-1.4,2.2-2.1,3.8-1.7,2.2.5,3.3,3,3.2,6.1l-1.2,48.6c0,3-1.2,4.2-3.1,3.7s-2.9-2.2-2.8-5.2l.9-42h0ZM107.8,233.2c-7.8-1.9-12.1-10.3-11.8-21.4.3-10.7,5.7-17.3,13.5-15.5,7.7,1.8,12.8,11.1,12.4,21.5-.3,8.2-1.4,13.3-4.4,20.2-2.7,6.2-6.7,11.7-11.2,15.8-.6.5-1.2.7-1.8.6-1.7-.4-2.8-2.5-2.8-4.6s.3-2.3,1-2.9c4.8-4.1,8.4-8.7,10.8-14.9-1.8,1.4-3.5,1.7-5.8,1.2h.1ZM101.9,213.5c-.2,6.9,2.4,11.7,6.4,12.7,3.3.8,5.6-.5,7.1-3.3.4-1.9.5-3.9.6-6.1.2-6.7-2.5-12.2-6.7-13.1-4.3-1-7.2,3.1-7.4,9.9h0ZM148.7,206.5c2.4.5,3.9,3.1,3.7,6.4-.1,2.3-.7,4.3-1.4,6.2-5.1,13.6-9.7,26.1-14.7,40.5-.5,1.6-1.5,2.4-2.9,2.1-1.8-.4-3.4-2.3-3.3-4.7,0-.8.3-1.7.7-2.9,4.8-13.1,9.9-26.3,15.1-40.1l-16.6-3.8c-1.6-.4-2.4-2.1-2.3-4.6,0-2.5,1-3.8,2.6-3.5l19,4.3h0ZM171.6,233.5c7.5,1.8,12.5,10.2,11.8,21.5-.6,11-6.5,17.8-14.3,15.9s-12.7-10.9-12.1-22.6c.3-7.2,1.8-11.8,5.8-19.7,3.4-6.2,7.7-11.5,12.5-16.2.6-.5,1.3-.8,2-.7,1.8.4,2.9,2.9,2.8,5.2,0,1.3-.5,2.2-1.1,2.7-4.9,4.2-9,9.2-12.1,14.6,1.7-1.1,2.9-1.3,4.6-.9h0v.2ZM177.3,253.5c.4-7-2.2-12.1-6.3-13-2.9-.7-5.5.6-7.1,3.3-.6,1.8-.9,3.5-1,6.1-.4,7.5,2.1,12.7,6.5,13.7,4.4,1.1,7.4-2.8,7.8-10.1h.1Z"/><path class="st0" d="M240.7,254.7c1.8-.4,2.7,1.2,2.8,3.5,0,2.3-.8,4.2-2.6,4.5l-19,4c-1.9.4-3.1-1.5-3.2-4.4,0-2.3.4-4.1,1.5-5.7,4-6.5,7.4-12,11.3-20,3.1-6.4,4.4-10.9,4.3-15.5-.1-6-2.2-8.7-5.5-8.1-2.2.4-4.5,2.3-6.9,6.6-.6,1-1.2,1.6-2,1.7-1.8.3-3.1-1.4-3.2-3.9,0-1.3.2-2.2,1-3.5,2.7-4.7,6.9-8.4,10.9-9.2,7.5-1.4,11.8,4.8,12,15.1.2,7.3-1.4,12.6-5.9,21-4.1,7.7-6.6,11.7-9.8,16.9l14.5-3h-.2Z"/><path class="st0" d="M273.7,227.2c.2,21.5-4.7,30.8-12.2,32.5-7.6,1.6-12.8-5.7-13.2-27.5-.4-22,4.5-31.6,12.3-33,7.7-1.4,12.9,6.3,13.2,28h-.1ZM254.2,231c.3,16.8,2.9,21.8,7.1,20.9,4.2-.9,6.7-6.8,6.5-23.6-.2-16.9-2.9-22-7.1-21.2s-6.7,6.8-6.4,23.8h-.1Z"/><path class="st0" d="M299.6,242.5c1.7-.4,2.6,1.1,2.6,3.4s-.8,4-2.5,4.4l-17.9,3.8c-1.8.4-2.9-1.5-2.9-4.3s.5-3.9,1.5-5.5c3.9-6.3,7.1-11.6,10.9-19.4,3-6.3,4.3-10.5,4.3-15.1s-2-8.5-5.1-7.9c-2,.4-4.2,2.2-6.6,6.3-.6,1-1.2,1.6-1.9,1.7-1.7.3-2.9-1.3-2.9-3.9s.2-2.1,1-3.4c2.6-4.6,6.6-8.2,10.3-8.8,7-1.3,11,4.8,11,14.7s-1.5,12.2-5.9,20.4c-4,7.5-6.4,11.4-9.4,16.4l13.6-2.8h-.1Z"/><path class="st0" d="M319.7,210.6c6.7-1.3,11.4,4.7,11.3,15.7,0,10.7-4.9,19.6-11.9,21.1s-11.8-5.1-11.8-16.6,1.1-12.1,4.4-21.3c2.8-7.3,6.3-14,10.4-20.4.5-.7,1.1-1.3,1.8-1.4,1.6-.3,2.7,1.6,2.7,3.9s-.3,2.3-.9,3c-4.2,5.9-7.6,12.3-10,18.7,1.4-1.7,2.5-2.4,4.1-2.7h-.1ZM325.6,227.5c0-6.8-2.4-10.6-6.1-9.9-2.6.5-4.9,2.8-6.2,6-.4,2-.6,3.7-.6,6.2,0,7.4,2.5,11.3,6.4,10.4,4-.8,6.4-5.8,6.4-12.8h.1Z"/>
</svg>