<svg width="93" height="107" xmlns="http://www.w3.org/2000/svg" xmlns:xlink="http://www.w3.org/1999/xlink" viewBox="0 0 93 107"><defs><filter id="hd" x="-30%" y="-30%" width="160%" height="160%" primitiveUnits="userSpaceOnUse" color-interpolation-filters="sRGB"><feTurbulence type="fractalNoise" baseFrequency="0.0486" numOctaves="2" seed="31" result="t"/><feDisplacementMap in="SourceGraphic" in2="t" scale="2.35" xChannelSelector="R" yChannelSelector="G"/></filter></defs><g filter="url(#hd)"><g transform="translate(-298,-1134)"><defs><linearGradient id="b" x1="0" y1="817" x2="3360" y2="817" gradientUnits="userSpaceOnUse"><stop offset="0" stop-color="#f29600"></stop><stop offset=".636" stop-color="#e60012"></stop></linearGradient><linearGradient id="c" x1="1056.064" y1="1267.435" x2="1138.26" y2="1267.435" gradientUnits="userSpaceOnUse"><stop offset="0" stop-color="#f29600"></stop><stop offset=".478" stop-color="#eb4809"></stop><stop offset=".899" stop-color="#e60012"></stop></linearGradient><linearGradient id="d" x1="762.705" y1="1450.415" x2="2597.295" y2="1450.415" gradientUnits="userSpaceOnUse"><stop offset="0" stop-color="#ee6006"></stop><stop offset=".243" stop-color="#ed5c06"></stop><stop offset=".439" stop-color="#ec5207"></stop><stop offset=".618" stop-color="#eb4109"></stop><stop offset=".787" stop-color="#e92a0c"></stop><stop offset=".948" stop-color="#e60b10"></stop><stop offset="1" stop-color="#e60012"></stop></linearGradient><linearGradient id="e" x1="1468.314" y1="1336.304" x2="1870.753" y2="1336.304" gradientUnits="userSpaceOnUse"><stop offset="0" stop-color="#ed5a07"></stop><stop offset="1" stop-color="#eb3d0a"></stop></linearGradient></defs><path d="M388.773,1215.945l-8.177-68.405c-.005-.045-.034-.079-.041-.123.1-1.008.075-2.016-.208-3.014v-.002c-2.938-10.351-24.59-10.069-44.47-4.432-10.18,2.884-19.41,6.979-25.982,11.533-9.646,6.685-10.519,12.155-9.551,15.565.436,1.546,1.471,3.24,3.501,4.704.048.37.132.741.313,1.091l30.666,59.048c.257.384,4.714,6.787,16.404,6.787,4.94,0,11.165-1.141,18.913-4.362.597-.19,14.695-4.746,18.506-17.03.136-.441.181-.904.126-1.361ZM306.654,1165.28c-.407-1.428,1.605-4.663,6.979-8.385,5.994-4.152,14.528-7.922,24.034-10.616,9.375-2.656,17.249-3.636,23.247-3.636,7.942,0,12.598,1.718,13.123,3.546.909,3.209-9.217,12.826-31.013,19.003-9.497,2.692-18.723,3.98-26.032,3.566-6.522-.35-9.931-2.048-10.338-3.478ZM367.898,1228.177c-20.983,8.71-27.383.4-27.433.402l-27.85-53.664c1.222.181,2.559.316,4.023.395.972.052,1.971.077,3.001.077,7.422,0,16.228-1.352,25.173-3.885,12.084-3.423,23.663-8.879,30.248-14.954l7.107,59.442c-3.101,8.514-13.9,12.056-14.271,12.187Z" fill="#fff"></path></g></g></svg>