<svg width="149" height="149" xmlns="http://www.w3.org/2000/svg" xmlns:xlink="http://www.w3.org/1999/xlink" viewBox="0 0 149 149"><defs><filter id="hd" x="-30%" y="-30%" width="160%" height="160%" primitiveUnits="userSpaceOnUse" color-interpolation-filters="sRGB"><feTurbulence type="fractalNoise" baseFrequency="0.0349" numOctaves="2" seed="32" result="t"/><feDisplacementMap in="SourceGraphic" in2="t" scale="3.28" xChannelSelector="R" yChannelSelector="G"/></filter></defs><g filter="url(#hd)"><g transform="translate(-847,-483)"><defs><linearGradient id="b" x1="0" y1="817" x2="3360" y2="817" gradientUnits="userSpaceOnUse"><stop offset="0" stop-color="#f29600"></stop><stop offset=".636" stop-color="#e60012"></stop></linearGradient><linearGradient id="c" x1="1056.064" y1="1267.435" x2="1138.26" y2="1267.435" gradientUnits="userSpaceOnUse"><stop offset="0" stop-color="#f29600"></stop><stop offset=".478" stop-color="#eb4809"></stop><stop offset=".899" stop-color="#e60012"></stop></linearGradient><linearGradient id="d" x1="762.705" y1="1450.415" x2="2597.295" y2="1450.415" gradientUnits="userSpaceOnUse"><stop offset="0" stop-color="#ee6006"></stop><stop offset=".243" stop-color="#ed5c06"></stop><stop offset=".439" stop-color="#ec5207"></stop><stop offset=".618" stop-color="#eb4109"></stop><stop offset=".787" stop-color="#e92a0c"></stop><stop offset=".948" stop-color="#e60b10"></stop><stop offset="1" stop-color="#e60012"></stop></linearGradient><linearGradient id="e" x1="1468.314" y1="1336.304" x2="1870.753" y2="1336.304" gradientUnits="userSpaceOnUse"><stop offset="0" stop-color="#ed5a07"></stop><stop offset="1" stop-color="#eb3d0a"></stop></linearGradient></defs><path d="M992.513,534.388l-47.332-48.467c-.663-.679-1.606-1.009-2.549-.885-.214.028-.391.153-.591.224-.662-.137-1.367-.095-2.011.245l-59.023,31.14c-.533.282-.969.715-1.252,1.247l-30.381,56.811c-.441.824-.423,1.741-.099,2.542-.114.884.115,1.802.783,2.488l47.796,48.942c.903.927,2.3,1.174,3.468.612l60.641-29.194c.1-.047.16-.143.252-.201.222-.137.423-.289.605-.483.123-.131.221-.266.318-.416.069-.106.169-.18.226-.296l29.701-60.876c.103-.211.177-.424.228-.643.229-.989-.051-2.044-.781-2.79ZM884.642,521.551l51.243-27.034-27,47.739c-.123.217-.159.453-.223.684-.011.006-.024.006-.035.012l-50.324,27.85,26.339-49.252ZM900.656,622.906l-43.515-44.564,52.395-28.996,46.021,47.13-54.902,26.43ZM959.819,592.198l-45.77-46.867c.025-.041.067-.063.09-.105l29.531-52.214,43.037,44.073-26.889,55.113Z" fill="#e60012"></path></g></g></svg>