<svg width="164" height="145" xmlns="http://www.w3.org/2000/svg" xmlns:xlink="http://www.w3.org/1999/xlink" viewBox="0 0 164 145"><defs><filter id="hd" x="-30%" y="-30%" width="160%" height="160%" primitiveUnits="userSpaceOnUse" color-interpolation-filters="sRGB"><feTurbulence type="fractalNoise" baseFrequency="0.0317" numOctaves="2" seed="33" result="t"/><feDisplacementMap in="SourceGraphic" in2="t" scale="3.61" xChannelSelector="R" yChannelSelector="G"/></filter></defs><g filter="url(#hd)"><g transform="translate(-2171,-359)"><defs><linearGradient id="b" x1="0" y1="817" x2="3360" y2="817" gradientUnits="userSpaceOnUse"><stop offset="0" stop-color="#f29600"></stop><stop offset=".636" stop-color="#e60012"></stop></linearGradient><linearGradient id="c" x1="1056.064" y1="1267.435" x2="1138.26" y2="1267.435" gradientUnits="userSpaceOnUse"><stop offset="0" stop-color="#f29600"></stop><stop offset=".478" stop-color="#eb4809"></stop><stop offset=".899" stop-color="#e60012"></stop></linearGradient><linearGradient id="d" x1="762.705" y1="1450.415" x2="2597.295" y2="1450.415" gradientUnits="userSpaceOnUse"><stop offset="0" stop-color="#ee6006"></stop><stop offset=".243" stop-color="#ed5c06"></stop><stop offset=".439" stop-color="#ec5207"></stop><stop offset=".618" stop-color="#eb4109"></stop><stop offset=".787" stop-color="#e92a0c"></stop><stop offset=".948" stop-color="#e60b10"></stop><stop offset="1" stop-color="#e60012"></stop></linearGradient><linearGradient id="e" x1="1468.314" y1="1336.304" x2="1870.753" y2="1336.304" gradientUnits="userSpaceOnUse"><stop offset="0" stop-color="#ed5a07"></stop><stop offset="1" stop-color="#eb3d0a"></stop></linearGradient></defs><path d="M2292.647,500.365l39.338-60.035c.551-.84.677-1.892.334-2.839-.078-.215-.247-.37-.366-.56-.009-.716-.214-1.436-.712-2.025l-45.693-53.956c-.414-.487-.961-.839-1.576-1.011l-65.713-18.462c-.954-.268-1.898-.04-2.653.478-.94.084-1.838.53-2.396,1.378l-39.723,60.624c-.753,1.146-.689,2.648.159,3.727l44.048,56.074c.072.092.185.132.266.215.192.199.395.372.638.516.163.097.325.168.503.234.125.047.225.134.357.166l69.763,16.831c.242.058.479.087.717.089,1.075.012,2.103-.52,2.708-1.445ZM2281.3,385.832l39.668,46.844-55.555-17.035c-.253-.078-.505-.061-.758-.074-.009-.01-.012-.023-.021-.034l-40.302-45.707,56.969,16.006ZM2180.094,425.539l36.171-55.194,41.962,47.588-38.254,58.374-39.878-50.767ZM2225.372,479.739l38.039-58.054c.048.017.08.055.129.069l60.762,18.632-35.772,54.588-63.158-15.237Z" fill="#e60012"></path></g></g></svg>