<svg width="171" height="151" xmlns="http://www.w3.org/2000/svg" xmlns:xlink="http://www.w3.org/1999/xlink" viewBox="0 0 171 151"><defs><filter id="hd" x="-30%" y="-30%" width="160%" height="160%" primitiveUnits="userSpaceOnUse" color-interpolation-filters="sRGB"><feTurbulence type="fractalNoise" baseFrequency="0.0304" numOctaves="2" seed="34" result="t"/><feDisplacementMap in="SourceGraphic" in2="t" scale="3.76" xChannelSelector="R" yChannelSelector="G"/></filter></defs><g filter="url(#hd)"><g transform="translate(-2778,-589)"><defs><linearGradient id="b" x1="0" y1="817" x2="3360" y2="817" gradientUnits="userSpaceOnUse"><stop offset="0" stop-color="#f29600"></stop><stop offset=".636" stop-color="#e60012"></stop></linearGradient><linearGradient id="c" x1="1056.064" y1="1267.435" x2="1138.26" y2="1267.435" gradientUnits="userSpaceOnUse"><stop offset="0" stop-color="#f29600"></stop><stop offset=".478" stop-color="#eb4809"></stop><stop offset=".899" stop-color="#e60012"></stop></linearGradient><linearGradient id="d" x1="762.705" y1="1450.415" x2="2597.295" y2="1450.415" gradientUnits="userSpaceOnUse"><stop offset="0" stop-color="#ee6006"></stop><stop offset=".243" stop-color="#ed5c06"></stop><stop offset=".439" stop-color="#ec5207"></stop><stop offset=".618" stop-color="#eb4109"></stop><stop offset=".787" stop-color="#e92a0c"></stop><stop offset=".948" stop-color="#e60b10"></stop><stop offset="1" stop-color="#e60012"></stop></linearGradient><linearGradient id="e" x1="1468.314" y1="1336.304" x2="1870.753" y2="1336.304" gradientUnits="userSpaceOnUse"><stop offset="0" stop-color="#ed5a07"></stop><stop offset="1" stop-color="#eb3d0a"></stop></linearGradient></defs><path d="M2905.068,736.189l41.033-62.621c.575-.877.706-1.974.349-2.961-.082-.225-.258-.386-.382-.584-.01-.747-.223-1.497-.743-2.112l-47.661-56.281c-.431-.508-1.002-.875-1.644-1.054l-68.544-19.258c-.995-.28-1.98-.042-2.767.499-.981.088-1.918.553-2.499,1.438l-41.435,63.235c-.785,1.196-.719,2.762.165,3.888l45.946,58.49c.075.096.193.138.277.224.201.207.412.388.665.538.17.101.339.175.525.244.131.049.234.14.373.174l72.768,17.556c.252.06.5.09.748.093,1.122.012,2.194-.542,2.825-1.508ZM2893.232,616.721l41.377,48.862-57.949-17.769c-.264-.081-.527-.063-.791-.077-.009-.011-.012-.024-.022-.035l-42.038-47.676,59.423,16.695ZM2787.667,658.139l37.729-57.572,43.769,49.638-39.902,60.888-41.596-52.954ZM2834.895,714.674l39.678-60.554c.05.018.084.057.135.072l63.38,19.435-37.313,56.94-65.879-15.893Z" fill="#fff"></path></g></g></svg>