<svg width="207" height="215" xmlns="http://www.w3.org/2000/svg" xmlns:xlink="http://www.w3.org/1999/xlink" viewBox="0 0 207 215"><defs><filter id="hd" x="-30%" y="-30%" width="160%" height="160%" primitiveUnits="userSpaceOnUse" color-interpolation-filters="sRGB"><feTurbulence type="fractalNoise" baseFrequency="0.0242" numOctaves="2" seed="35" result="t"/><feDisplacementMap in="SourceGraphic" in2="t" scale="4.73" xChannelSelector="R" yChannelSelector="G"/></filter></defs><g filter="url(#hd)"><g transform="translate(-2915,-1154)"><defs><linearGradient id="b" x1="0" y1="817" x2="3360" y2="817" gradientUnits="userSpaceOnUse"><stop offset="0" stop-color="#f29600"></stop><stop offset=".636" stop-color="#e60012"></stop></linearGradient><linearGradient id="c" x1="1056.064" y1="1267.435" x2="1138.26" y2="1267.435" gradientUnits="userSpaceOnUse"><stop offset="0" stop-color="#f29600"></stop><stop offset=".478" stop-color="#eb4809"></stop><stop offset=".899" stop-color="#e60012"></stop></linearGradient><linearGradient id="d" x1="762.705" y1="1450.415" x2="2597.295" y2="1450.415" gradientUnits="userSpaceOnUse"><stop offset="0" stop-color="#ee6006"></stop><stop offset=".243" stop-color="#ed5c06"></stop><stop offset=".439" stop-color="#ec5207"></stop><stop offset=".618" stop-color="#eb4109"></stop><stop offset=".787" stop-color="#e92a0c"></stop><stop offset=".948" stop-color="#e60b10"></stop><stop offset="1" stop-color="#e60012"></stop></linearGradient><linearGradient id="e" x1="1468.314" y1="1336.304" x2="1870.753" y2="1336.304" gradientUnits="userSpaceOnUse"><stop offset="0" stop-color="#ed5a07"></stop><stop offset="1" stop-color="#eb3d0a"></stop></linearGradient></defs><path d="M3118.394,1221.818l-72.296-64.867c-1.012-.908-2.394-1.291-3.73-1.026-.304.061-.545.255-.824.376-.96-.133-1.964-.007-2.854.54l-81.499,50.129c-.736.454-1.318,1.114-1.673,1.902l-38.096,84.149c-.553,1.221-.44,2.531.099,3.646-.079,1.275.335,2.568,1.356,3.486l73.006,65.502c1.38,1.241,3.402,1.462,5.019.548l83.997-47.497c.138-.077.215-.22.341-.312.305-.217.578-.453.821-.748.163-.198.291-.401.416-.625.089-.158.225-.273.295-.444l36.739-89.9c.127-.312.213-.624.265-.942.235-1.436-.267-2.92-1.381-3.918ZM2962.855,1213.648l70.756-43.519-34.116,70.85c-.156.322-.184.663-.254.999-.016.01-.034.011-.049.021l-69.364,44.599,33.027-72.951ZM2995.344,1357.139l-66.466-59.642,72.219-46.436,70.295,63.078-76.048,43ZM3077.084,1307.615l-69.911-62.725c.032-.06.09-.096.119-.159l37.314-77.491,65.737,58.985-33.26,81.388Z" fill="#fff"></path></g></g></svg>