<svg width="120" height="107" xmlns="http://www.w3.org/2000/svg" xmlns:xlink="http://www.w3.org/1999/xlink" viewBox="0 0 120 107"><defs><filter id="hd" x="-30%" y="-30%" width="160%" height="160%" primitiveUnits="userSpaceOnUse" color-interpolation-filters="sRGB"><feTurbulence type="fractalNoise" baseFrequency="0.0433" numOctaves="2" seed="36" result="t"/><feDisplacementMap in="SourceGraphic" in2="t" scale="2.64" xChannelSelector="R" yChannelSelector="G"/></filter></defs><g filter="url(#hd)"><g transform="translate(-2368,-890)"><defs><linearGradient id="b" x1="0" y1="817" x2="3360" y2="817" gradientUnits="userSpaceOnUse"><stop offset="0" stop-color="#f29600"></stop><stop offset=".636" stop-color="#e60012"></stop></linearGradient><linearGradient id="c" x1="1056.064" y1="1267.435" x2="1138.26" y2="1267.435" gradientUnits="userSpaceOnUse"><stop offset="0" stop-color="#f29600"></stop><stop offset=".478" stop-color="#eb4809"></stop><stop offset=".899" stop-color="#e60012"></stop></linearGradient><linearGradient id="d" x1="762.705" y1="1450.415" x2="2597.295" y2="1450.415" gradientUnits="userSpaceOnUse"><stop offset="0" stop-color="#ee6006"></stop><stop offset=".243" stop-color="#ed5c06"></stop><stop offset=".439" stop-color="#ec5207"></stop><stop offset=".618" stop-color="#eb4109"></stop><stop offset=".787" stop-color="#e92a0c"></stop><stop offset=".948" stop-color="#e60b10"></stop><stop offset="1" stop-color="#e60012"></stop></linearGradient><linearGradient id="e" x1="1468.314" y1="1336.304" x2="1870.753" y2="1336.304" gradientUnits="userSpaceOnUse"><stop offset="0" stop-color="#ed5a07"></stop><stop offset="1" stop-color="#eb3d0a"></stop></linearGradient></defs><path d="M2485.437,938.676l-27.174-44.679c-.38-.626-1.033-1.038-1.763-1.109-.166-.016-.321.047-.483.066-.474-.218-1.011-.309-1.555-.166l-49.804,13.161c-.45.119-.853.369-1.158.72l-32.724,37.447c-.475.543-.621,1.236-.516,1.895-.239.645-.227,1.375.157,2.008l27.441,45.117c.518.854,1.526,1.283,2.502,1.063l50.682-11.416c.083-.018.145-.08.224-.107.191-.064.368-.144.539-.258.115-.077.213-.161.312-.258.07-.068.159-.106.221-.183l32.919-40.622c.114-.141.207-.288.283-.444.344-.704.317-1.546-.103-2.234ZM2406.539,910.273l43.238-11.425-28.604,31.212c-.13.142-.198.313-.286.476-.009.003-.019,0-.029.003l-42.689,12.199,28.37-32.464ZM2400.966,989.285l-24.981-41.079,44.446-12.701,26.421,43.445-45.885,10.335ZM2450.8,976.473l-26.277-43.204c.026-.026.061-.036.086-.063l31.286-34.137,24.708,40.627-29.802,36.776Z" fill="#e60012"></path></g></g></svg>