<svg width="87" height="83" xmlns="http://www.w3.org/2000/svg" xmlns:xlink="http://www.w3.org/1999/xlink" viewBox="0 0 87 83"><defs><filter id="hd" x="-30%" y="-30%" width="160%" height="160%" primitiveUnits="userSpaceOnUse" color-interpolation-filters="sRGB"><feTurbulence type="fractalNoise" baseFrequency="0.0598" numOctaves="2" seed="37" result="t"/><feDisplacementMap in="SourceGraphic" in2="t" scale="1.91" xChannelSelector="R" yChannelSelector="G"/></filter></defs><g filter="url(#hd)"><g transform="translate(-1054,-1226)"><defs><linearGradient id="b" x1="0" y1="817" x2="3360" y2="817" gradientUnits="userSpaceOnUse"><stop offset="0" stop-color="#f29600"></stop><stop offset=".636" stop-color="#e60012"></stop></linearGradient><linearGradient id="c" x1="1056.064" y1="1267.435" x2="1138.26" y2="1267.435" gradientUnits="userSpaceOnUse"><stop offset="0" stop-color="#f29600"></stop><stop offset=".478" stop-color="#eb4809"></stop><stop offset=".899" stop-color="#e60012"></stop></linearGradient><linearGradient id="d" x1="762.705" y1="1450.415" x2="2597.295" y2="1450.415" gradientUnits="userSpaceOnUse"><stop offset="0" stop-color="#ee6006"></stop><stop offset=".243" stop-color="#ed5c06"></stop><stop offset=".439" stop-color="#ec5207"></stop><stop offset=".618" stop-color="#eb4109"></stop><stop offset=".787" stop-color="#e92a0c"></stop><stop offset=".948" stop-color="#e60b10"></stop><stop offset="1" stop-color="#e60012"></stop></linearGradient><linearGradient id="e" x1="1468.314" y1="1336.304" x2="1870.753" y2="1336.304" gradientUnits="userSpaceOnUse"><stop offset="0" stop-color="#ed5a07"></stop><stop offset="1" stop-color="#eb3d0a"></stop></linearGradient></defs><rect x="1068.465" y="1248.764" width="57.395" height="37.343" transform="translate(-535.673 887.952) rotate(-36.035)" fill="#fff"></rect><path d="M1087.53,1291.307c-.374,0-.748-.162-1.005-.471-.185-.221-.437-.534-.762-.981l-13.07-17.961c-.153-.214-.347-.485-.509-.724-.365-.552-.261-1.296.248-1.724.379-.32.924-.715,1.307-.992.023-.016,8.151-5.94,8.304-6.05.532-.383,1.262-.316,1.718.162.271.284.667.76,1.217,1.553l3.647,5.284c1.163,1.686,3.327,4.826,7.565,4.977.947.027,1.826-.09,2.471-.183.798-.113,1.181-.158,1.483-.138.338.029.649.189.87.444.117.135.762,1.041,1.154,1.598.329.476.564.782.793,1.087.338.44.591.778.793,1.075.401.584.266,1.384-.307,1.801l-15.193,11.023c-.225.147-.473.219-.726.219ZM1111.659,1273.515c-.068,0-.135-.007-.203-.018-.347-.054-.654-.241-.857-.523l-4.617-6.366s-.005-.009-.009-.014l-.009-.011c-1.353-1.923-3.395-4.819-7.628-4.819-.857.029-1.569.104-2.34.219-.329.05-.78.113-1.068.135-.347.032-.69-.088-.951-.313-.744-.638-1.587-1.921-2.268-2.953-.356-.548-.658-1.014-.969-1.447-.415-.584-.28-1.393.298-1.815l15.162-11.032c.28-.205.631-.286.974-.234.343.054.649.241.857.523l14.269,19.614c.424.586.293,1.404-.289,1.828l-9.58,6.974c-.225.165-.496.252-.771.252ZM1084.748,1306.322c-1.74,0-3.458-.8-4.558-2.308l-23.051-31.687c-.884-1.213-1.24-2.7-1.005-4.186.234-1.485,1.032-2.788,2.245-3.668l47.897-34.854c2.498-1.819,6.019-1.269,7.849,1.233l23.06,31.689c.884,1.213,1.24,2.698,1.005,4.184s-1.032,2.788-2.245,3.67l-47.897,34.856c-.996.724-2.155,1.071-3.3,1.071ZM1062.973,1269.221l21.969,30.199,46.409-33.772-21.969-30.195-46.409,33.767ZM1131.888,1266.387s.005.005.005.007v-.002l-.005-.005Z" fill="url(#c)"></path></g></g></svg>