<svg width="118" height="104" xmlns="http://www.w3.org/2000/svg" xmlns:xlink="http://www.w3.org/1999/xlink" viewBox="0 0 118 104"><defs><filter id="hd" x="-30%" y="-30%" width="160%" height="160%" primitiveUnits="userSpaceOnUse" color-interpolation-filters="sRGB"><feTurbulence type="fractalNoise" baseFrequency="0.0441" numOctaves="2" seed="23" result="t"/><feDisplacementMap in="SourceGraphic" in2="t" scale="2.6" xChannelSelector="R" yChannelSelector="G"/></filter></defs><g filter="url(#hd)"><g transform="translate(-2881,-964)"><defs><linearGradient id="b" x1="0" y1="1450.666" x2="3360" y2="1450.666" gradientUnits="userSpaceOnUse"><stop offset="0" stop-color="#f29600"></stop><stop offset=".202" stop-color="#f19200"></stop><stop offset=".365" stop-color="#f08801"></stop><stop offset=".514" stop-color="#ef7703"></stop><stop offset=".654" stop-color="#ed6006"></stop><stop offset=".789" stop-color="#eb410a"></stop><stop offset=".917" stop-color="#e81c0e"></stop><stop offset="1" stop-color="#e60012"></stop></linearGradient><linearGradient id="c" x1="895.976" y1="1151.668" x2="1379.413" y2="668.231" gradientUnits="userSpaceOnUse"><stop offset="0" stop-color="#f29600"></stop><stop offset=".636" stop-color="#e60012"></stop></linearGradient><linearGradient id="d" x1="2588.075" y1="1335.428" x2="2990.514" y2="1335.428" gradientUnits="userSpaceOnUse"><stop offset="0" stop-color="#f29600"></stop><stop offset="1" stop-color="#e60012"></stop></linearGradient><linearGradient id="e" x1="2593.834" y1="997.38" x2="2680.094" y2="997.38" gradientUnits="userSpaceOnUse"><stop offset="0" stop-color="#f29600"></stop><stop offset=".478" stop-color="#eb4809"></stop><stop offset=".899" stop-color="#e60012"></stop></linearGradient><linearGradient id="f" x1="2726.074" y1="1164.293" x2="2806.169" y2="1164.293" xlink:href="#e"></linearGradient><linearGradient id="g" x1="2737.729" y1="742.178" x2="2896.901" y2="742.178" xlink:href="#e"></linearGradient><linearGradient id="h" x1="2882.935" y1="1015.713" x2="2996.497" y2="1015.713" xlink:href="#e"></linearGradient></defs><path d="M2996.054,1011.337l-25.634-43.45c-.51-.865-1.397-1.439-2.394-1.549-.149-.016-.302.051-.455.057-.583-.215-1.209-.317-1.843-.156l-48.21,12.055c-.619.154-1.173.49-1.599.962l-32.048,35.698c-.601.669-.857,1.521-.8,2.351-.242.819-.175,1.725.294,2.518l25.888,43.874c.58.984,1.634,1.566,2.746,1.566.22,0,.439-.022.659-.068l49.031-10.361c.109-.023.187-.105.291-.139.259-.082.49-.197.724-.345.188-.119.355-.238.513-.393.082-.079.189-.113.264-.202l32.276-38.76c.861-1.035.98-2.5.294-3.659ZM2920.014,984.243l38.466-9.618-25.796,27.404c-.078.082-.105.189-.172.277l-37.958,10.298,25.461-28.361ZM2913.582,1058.484l-22.602-38.303,41.154-11.167,23.898,40.502-42.45,8.968ZM2961.478,1046.197l-23.741-40.237,29.349-31.178,22.334,37.86-27.942,33.555Z" fill="url(#h)"></path></g></g></svg>