<svg width="164" height="144" xmlns="http://www.w3.org/2000/svg" xmlns:xlink="http://www.w3.org/1999/xlink" viewBox="0 0 164 144"><defs><filter id="hd" x="-30%" y="-30%" width="160%" height="160%" primitiveUnits="userSpaceOnUse" color-interpolation-filters="sRGB"><feTurbulence type="fractalNoise" baseFrequency="0.0317" numOctaves="2" seed="22" result="t"/><feDisplacementMap in="SourceGraphic" in2="t" scale="3.61" xChannelSelector="R" yChannelSelector="G"/></filter></defs><g filter="url(#hd)"><g transform="translate(-2735,-670)"><defs><linearGradient id="b" x1="0" y1="1450.666" x2="3360" y2="1450.666" gradientUnits="userSpaceOnUse"><stop offset="0" stop-color="#f29600"></stop><stop offset=".202" stop-color="#f19200"></stop><stop offset=".365" stop-color="#f08801"></stop><stop offset=".514" stop-color="#ef7703"></stop><stop offset=".654" stop-color="#ed6006"></stop><stop offset=".789" stop-color="#eb410a"></stop><stop offset=".917" stop-color="#e81c0e"></stop><stop offset="1" stop-color="#e60012"></stop></linearGradient><linearGradient id="c" x1="895.976" y1="1151.668" x2="1379.413" y2="668.231" gradientUnits="userSpaceOnUse"><stop offset="0" stop-color="#f29600"></stop><stop offset=".636" stop-color="#e60012"></stop></linearGradient><linearGradient id="d" x1="2588.075" y1="1335.428" x2="2990.514" y2="1335.428" gradientUnits="userSpaceOnUse"><stop offset="0" stop-color="#f29600"></stop><stop offset="1" stop-color="#e60012"></stop></linearGradient><linearGradient id="e" x1="2593.834" y1="997.38" x2="2680.094" y2="997.38" gradientUnits="userSpaceOnUse"><stop offset="0" stop-color="#f29600"></stop><stop offset=".478" stop-color="#eb4809"></stop><stop offset=".899" stop-color="#e60012"></stop></linearGradient><linearGradient id="f" x1="2726.074" y1="1164.293" x2="2806.169" y2="1164.293" xlink:href="#e"></linearGradient><linearGradient id="g" x1="2737.729" y1="742.178" x2="2896.901" y2="742.178" xlink:href="#e"></linearGradient><linearGradient id="h" x1="2882.935" y1="1015.713" x2="2996.497" y2="1015.713" xlink:href="#e"></linearGradient></defs><path d="M2896.7,747.229c-.08-.214-.25-.366-.371-.555-.017-.714-.228-1.429-.731-2.011l-46.119-53.299c-.417-.481-.966-.826-1.582-.991l-65.699-17.706c-.953-.257-1.892-.02-2.639.505-.936.094-1.827.548-2.373,1.399l-38.953,60.851c-.738,1.151-.659,2.647.198,3.714l44.502,55.428c.072.091.186.13.267.211.194.196.398.366.641.508.164.095.326.164.504.228.125.046.225.131.358.162l69.718,16.037c.242.055.479.081.716.081,1.072,0,2.091-.54,2.684-1.469l38.576-60.26c.54-.843.655-1.893.303-2.834ZM2885.334,742.55l-55.558-16.392c-.253-.075-.504-.055-.757-.066-.009-.01-.012-.023-.021-.033l-40.658-45.133,56.956,15.351,40.037,46.273ZM2780.305,681.529l42.332,46.991-37.513,58.593-40.289-50.182,35.47-55.401ZM2853.66,804.994l-63.118-14.518,37.302-58.271c.048.016.081.054.13.068l60.765,17.928-35.079,54.793Z" fill="url(#g)"></path></g></g></svg>