<svg width="217" height="260" xmlns="http://www.w3.org/2000/svg" xmlns:xlink="http://www.w3.org/1999/xlink" viewBox="0 0 217 260"><defs><filter id="hd" x="-30%" y="-30%" width="160%" height="160%" primitiveUnits="userSpaceOnUse" color-interpolation-filters="sRGB"><feTurbulence type="fractalNoise" baseFrequency="0.02" numOctaves="2" seed="21" result="t"/><feDisplacementMap in="SourceGraphic" in2="t" scale="5.72" xChannelSelector="R" yChannelSelector="G"/></filter></defs><g filter="url(#hd)"><g transform="translate(-2591,-945)"><defs><linearGradient id="b" x1="0" y1="1450.666" x2="3360" y2="1450.666" gradientUnits="userSpaceOnUse"><stop offset="0" stop-color="#f29600"></stop><stop offset=".202" stop-color="#f19200"></stop><stop offset=".365" stop-color="#f08801"></stop><stop offset=".514" stop-color="#ef7703"></stop><stop offset=".654" stop-color="#ed6006"></stop><stop offset=".789" stop-color="#eb410a"></stop><stop offset=".917" stop-color="#e81c0e"></stop><stop offset="1" stop-color="#e60012"></stop></linearGradient><linearGradient id="c" x1="895.976" y1="1151.668" x2="1379.413" y2="668.231" gradientUnits="userSpaceOnUse"><stop offset="0" stop-color="#f29600"></stop><stop offset=".636" stop-color="#e60012"></stop></linearGradient><linearGradient id="d" x1="2588.075" y1="1335.428" x2="2990.514" y2="1335.428" gradientUnits="userSpaceOnUse"><stop offset="0" stop-color="#f29600"></stop><stop offset="1" stop-color="#e60012"></stop></linearGradient><linearGradient id="e" x1="2593.834" y1="997.38" x2="2680.094" y2="997.38" gradientUnits="userSpaceOnUse"><stop offset="0" stop-color="#f29600"></stop><stop offset=".478" stop-color="#eb4809"></stop><stop offset=".899" stop-color="#e60012"></stop></linearGradient><linearGradient id="f" x1="2726.074" y1="1164.293" x2="2806.169" y2="1164.293" xlink:href="#e"></linearGradient><linearGradient id="g" x1="2737.729" y1="742.178" x2="2896.901" y2="742.178" xlink:href="#e"></linearGradient><linearGradient id="h" x1="2882.935" y1="1015.713" x2="2996.497" y2="1015.713" xlink:href="#e"></linearGradient></defs><path d="M2680.072,1025.129l-7.947-66.481c-.005-.043-.033-.076-.04-.119.097-.979.073-1.958-.202-2.93v-.002c-2.855-10.06-23.898-9.786-43.219-4.308-9.893,2.803-18.864,6.783-25.251,11.209-9.375,6.498-10.223,11.813-9.282,15.128.424,1.502,1.43,3.148,3.403,4.571.047.36.128.72.305,1.061l29.803,57.387c.25.374,4.582,6.596,15.943,6.596,4.802,0,10.851-1.109,18.381-4.239.58-.185,14.282-4.613,17.985-16.551.132-.428.176-.879.123-1.322ZM2600.263,975.889c-.395-1.388,1.56-4.531,6.783-8.149,5.825-4.035,14.119-7.699,23.358-10.317,9.111-2.581,16.764-3.534,22.594-3.534,7.719,0,12.244,1.669,12.753,3.446.883,3.119-8.958,12.465-30.141,18.469-9.23,2.616-18.196,3.868-25.3,3.466-6.339-.34-9.652-1.99-10.047-3.38ZM2659.785,1037.017c-20.393,8.465-26.613.389-26.662.391l-27.066-52.154c1.188.176,2.487.307,3.91.384.945.05,1.916.075,2.917.075,7.213,0,15.771-1.313,24.465-3.776,11.745-3.327,22.997-8.63,29.397-14.534l6.907,57.771c-3.014,8.274-13.509,11.716-13.869,11.844Z" fill="url(#e)"></path><rect x="2738.158" y="1146.099" width="55.928" height="36.388" transform="translate(-155.6539 1850.0308) rotate(-36.035)" fill="#fff"></rect><path d="M2756.736,1187.555c-.365,0-.729-.158-.98-.459-.18-.215-.426-.521-.742-.955l-12.736-17.502c-.149-.209-.338-.472-.496-.705-.356-.538-.255-1.263.242-1.68.369-.312.901-.696,1.274-.966.022-.015,7.943-5.788,8.092-5.896.518-.373,1.23-.308,1.674.158.264.277.65.74,1.186,1.513l3.554,5.149c1.133,1.643,3.242,4.703,7.372,4.85.923.026,1.779-.088,2.407-.178.778-.11,1.151-.154,1.445-.134.329.029.633.185.848.433.114.132.742,1.015,1.125,1.557.321.463.549.762.773,1.059.329.428.575.758.773,1.048.391.569.259,1.349-.299,1.755l-14.805,10.741c-.22.143-.461.213-.707.213ZM2780.248,1170.217c-.066,0-.132-.007-.198-.018-.338-.053-.637-.235-.835-.51l-4.499-6.203s-.004-.009-.009-.013l-.009-.011c-1.318-1.874-3.308-4.696-7.433-4.696-.835.029-1.529.101-2.28.213-.321.048-.76.11-1.041.132-.338.031-.672-.086-.927-.305-.725-.622-1.546-1.871-2.21-2.877-.347-.534-.641-.988-.945-1.41-.404-.569-.272-1.357.29-1.768l14.774-10.75c.272-.2.615-.279.949-.228.334.053.633.235.835.51l13.904,19.112c.413.571.286,1.368-.281,1.781l-9.335,6.796c-.22.16-.483.246-.751.246ZM2754.025,1202.186c-1.696,0-3.369-.78-4.441-2.249l-22.462-30.877c-.861-1.182-1.208-2.631-.98-4.079.228-1.448,1.006-2.717,2.188-3.574l46.672-33.963c2.434-1.773,5.865-1.237,7.648,1.202l22.471,30.879c.861,1.182,1.208,2.629.98,4.077s-1.006,2.717-2.188,3.576l-46.672,33.965c-.971.705-2.1,1.043-3.216,1.043ZM2732.807,1166.033l21.408,29.427,45.222-32.909-21.408-29.423-45.222,32.904ZM2799.959,1163.272s.004.004.004.007v-.002l-.004-.004Z" fill="url(#f)"></path></g></g></svg>