<svg width="664" height="558" xmlns="http://www.w3.org/2000/svg" xmlns:xlink="http://www.w3.org/1999/xlink" viewBox="0 0 664 558"><g transform="translate(-863,-649)"><defs><linearGradient id="c" x1="895.976" y1="1151.668" x2="1379.413" y2="668.231" gradientUnits="userSpaceOnUse"><stop offset="0" stop-color="#f29600"></stop><stop offset=".636" stop-color="#e60012"></stop></linearGradient></defs><path d="M1194.47,712.201l15.388-3.398,4.665,7.114,7.462-1.645-22.828-34.504-7.277,1.607-6.225,40.918,7.466-1.65,1.349-8.441ZM1197.77,690.559l7.883,11.835-10.087,2.225,2.204-14.061ZM1234.04,713.327l-1.735-25.273,18.193,24.143,7.058-.481-2.642-38.525-7.329.502,1.735,25.354-18.223-24.224-7.032.481,2.637,38.525,7.337-.502ZM1277.14,687.234l14.228,26.678,7.045.614,3.368-38.469-7.324-.64-2.216,25.316-14.245-26.755-7.024-.619-3.368,38.469,7.32.644,2.216-25.238ZM1322.62,680.077l-7.157-1.422-7.522,37.877,7.157,1.422,7.522-37.877ZM1341.754,725.128l24.791-32.717-7.208-2.247-17.579,23.249-1.104-29.083-7.213-2.251,1.551,40.94,6.762,2.109ZM1378.84,740.236l2.977-6.573-12.553-5.688,4.193-9.257,12.553,5.687,2.917-6.431-12.552-5.688,2.874-6.358,12.561,5.683,2.964-6.551-19.203-8.699-15.933,35.174,19.203,8.699ZM1392.827,748.158l8.467-13.992.576.348-1.035,18.485,6.878,4.163,1.052-19.426c2.547.52,4.79.365,6.714-.464,1.92-.833,3.54-2.337,4.85-4.506,1.254-2.066,1.864-4.141,1.838-6.225-.026-2.084-.619-3.918-1.774-5.507-1.151-1.585-3.553-3.484-7.204-5.692l-6.663-4.029-19.989,33.039,6.289,3.806ZM1409.104,721.248l1.727,1.044c1.671,1.01,2.749,1.821,3.235,2.436.485.61.752,1.293.803,2.053.056.76-.142,1.503-.575,2.221-.735,1.22-1.641,1.864-2.715,1.929-1.07.073-2.607-.494-4.605-1.705l-1.972-1.194,4.102-6.783ZM1421.88,753.914l-7.17-.834c-.614,3.179-.528,5.92.262,8.235.79,2.311,2.277,4.313,4.446,5.997,2.783,2.157,5.679,3.084,8.673,2.792,2.994-.296,5.464-1.692,7.397-4.201,1.001-1.284,1.671-2.663,2.019-4.128.348-1.469.391-3.252.133-5.357-.094-.851-.537-3.059-1.319-6.632-.816-3.837-1.224-6.246-1.224-7.217.004-.726.206-1.344.601-1.86.395-.511.997-.782,1.796-.816.803-.034,1.585.245,2.346.834,1.568,1.211,2.29,3.458,2.178,6.731l7.247-.468c-.163-3.115-.657-5.555-1.495-7.329-.829-1.774-2.01-3.247-3.536-4.429-2.367-1.834-4.953-2.62-7.741-2.35-2.784.267-4.996,1.457-6.633,3.579-1.134,1.465-1.792,3.312-1.959,5.537s.361,5.984,1.589,11.268c.649,2.779.958,4.713.937,5.8-.021,1.091-.305,1.98-.838,2.672-.588.765-1.452,1.169-2.578,1.229-1.13.056-2.2-.305-3.192-1.078-1.911-1.478-2.565-4.137-1.942-7.973ZM1437.388,780.862l7.84-3.42,11.165,11.122-3.471,7.767,5.413,5.391,16.728-37.842-5.28-5.258-37.804,16.848,5.409,5.391ZM1465.23,768.538l-5.705,13.029-7.32-7.295,13.025-5.735ZM1465.328,811.105l12.913-10.035.412.533-7.586,16.891,4.927,6.345,7.952-17.759c2.187,1.401,4.33,2.053,6.423,1.968,2.101-.086,4.145-.906,6.151-2.461,1.907-1.482,3.222-3.201,3.939-5.155.721-1.955.825-3.879.318-5.774-.511-1.899-2.075-4.528-4.691-7.9l-4.773-6.147-30.496,23.692,4.51,5.804ZM1490.159,791.808l1.242,1.594c1.198,1.542,1.916,2.685,2.152,3.433.232.747.236,1.482.009,2.208-.224.73-.666,1.353-1.332,1.869-1.125.872-2.195,1.147-3.226.833-1.027-.322-2.251-1.405-3.69-3.252l-1.409-1.817,6.255-4.867ZM1520.835,823.988l-15.594,1.134,8.093-13.394-4.115-6.732-12.75,21.11-14.266,8.729,3.862,6.315,14.266-8.725,24.568-1.792-4.064-6.645ZM1068.757,1123.493c-2.617-3.358-5.153-6.781-7.594-10.277-15.744,8.31-33.858,12.965-53.405,12.965-29.542,0-59.085-10.38-75.853-27.147-5.832-5.302-10.265-11.333-16.32-21.549l-10.025,7.558-30.344,22.88-9.993,7.535c30.716,47.742,79.707,73.8,140.937,73.8,37.989,0,72.05-9.835,100.065-27.207-3.435-2.827-6.777-5.758-10.051-8.766-9.949-9.141-19.102-19.123-27.418-29.793ZM1082.812,942.458c-1.892,10.451-2.934,21.194-2.934,32.182,0,28.896,6.87,56.203,19.004,80.436,2.28,4.555,4.718,9.017,7.363,13.342,2.456,4.017,5.093,7.908,7.846,11.711,8.28,11.434,17.864,21.852,28.538,31.054,3.222,2.778,6.512,5.477,9.925,8.025,3.343,2.495,6.801,4.838,10.316,7.102,18.348,11.812,38.936,20.433,61.013,24.962,5.863,1.203,11.829,2.12,17.883,2.737,6.053.617,12.195.932,18.408.932,99.419,0,180.302-80.882,180.302-180.301s-80.882-180.299-180.302-180.299c-6.214,0-12.355.316-18.408.933-6.054.617-12.02,1.534-17.883,2.737-40.287,8.266-75.688,30.037-101.324,60.325,3.401,2.402,6.686,4.957,9.899,7.602,30.808-36.141,76.616-59.125,127.717-59.125,92.546,0,167.835,75.287,167.835,167.829s-75.289,167.83-167.835,167.83c-33.248,0-64.242-9.758-90.344-26.503-3.523-2.26-6.978-4.615-10.314-7.124-3.415-2.568-6.705-5.289-9.912-8.104-11.004-9.661-20.756-20.712-28.933-32.914-2.889-4.311-5.594-8.755-8.082-13.334-2.925-5.386-5.531-10.966-7.863-16.686-7.958-19.512-12.381-40.827-12.381-63.166,0-6.132.352-12.182.997-18.146-3.069-5.042-6.581-9.729-10.53-14.036ZM1260.176,744.461c-74.701,0-141.175,35.792-183.254,91.102,4.181,1.348,8.275,2.868,12.299,4.517,39.901-50.583,101.677-83.148,170.954-83.148,120.043,0,217.71,97.662,217.71,217.708s-97.666,217.71-217.71,217.71c-45.478,0-87.728-14.038-122.688-37.979-3.547-2.429-6.998-4.981-10.39-7.61-3.421-2.651-6.757-5.403-10.012-8.248-10.127-8.854-19.422-18.624-27.767-29.188-2.628-3.326-5.164-6.725-7.598-10.204-2.406-3.439-4.737-6.933-6.945-10.513-20.467-33.173-32.309-72.208-32.309-113.966,0-19.092,2.491-37.609,7.128-55.265-3.781-1.586-7.693-2.996-11.771-4.175-5.077,18.973-7.824,38.888-7.824,59.44,0,44.676,12.837,86.392,34.953,121.733,2.211,3.532,4.522,6.992,6.915,10.393,2.433,3.457,4.958,6.841,7.573,10.155,8.336,10.567,17.553,20.401,27.582,29.36,3.268,2.919,6.633,5.728,10.064,8.461,3.392,2.7,6.862,5.303,10.406,7.813,37.531,26.58,83.295,42.267,132.682,42.267,126.921,0,230.176-103.259,230.176-230.18s-103.255-230.179-230.176-230.179ZM1061.037,925.017c-3.963,15.899-6.1,32.514-6.1,49.623,0,38.229,10.537,74.03,28.813,104.709,2.221,3.729,4.547,7.386,6.993,10.958,2.434,3.554,5.001,7.006,7.647,10.395,8.354,10.697,17.737,20.541,28.009,29.394,3.236,2.789,6.539,5.499,9.945,8.084,3.361,2.551,6.801,5,10.319,7.345,32.535,21.684,71.566,34.356,113.512,34.356,113.17,0,205.239-92.071,205.239-205.241s-92.069-205.239-205.239-205.239c-64.208,0-121.6,29.658-159.263,75.97,3.785,1.899,7.472,3.955,11.085,6.122,29.463-35.39,71.324-60.112,118.86-67.396,6.375-.977,12.851-1.64,19.412-1.974,3.281-.167,6.583-.251,9.905-.251,106.293,0,192.772,86.475,192.772,192.768s-86.48,192.77-192.772,192.77c-3.322,0-6.624-.085-9.905-.252-6.562-.333-13.038-.997-19.412-1.974-27.587-4.227-53.239-14.365-75.693-29.013-3.524-2.298-6.995-4.67-10.355-7.188-3.408-2.554-6.697-5.256-9.926-8.025-10.436-8.949-19.92-18.971-28.247-29.929-2.686-3.534-5.239-7.172-7.681-10.891-2.514-3.829-4.898-7.748-7.14-11.759-15.524-27.77-24.413-59.73-24.413-93.742,0-14.497,1.661-28.606,4.71-42.197-3.464-2.724-7.183-5.173-11.076-7.426ZM1029.234,900.267c4.179.775,8.243,1.734,12.193,2.866,4.058,1.163,7.991,2.511,11.792,4.038,3.933,1.579,7.73,3.339,11.371,5.292,3.825,2.051,7.49,4.298,10.974,6.744.001,0,.002.001.003.002,3.722,2.614,7.23,5.459,10.539,8.502.001,0,.002.002.003.003,3.66,3.366,7.059,6.986,10.181,10.849,3.742,4.627,7.088,9.595,10.006,14.888,9.06,16.432,14.04,35.929,14.04,57.756,0,8.794-.906,17.287-2.582,25.423,2.516,5.758,5.373,11.331,8.542,16.702,7.976,13.518,17.91,25.75,29.458,36.25,3.209,2.918,6.562,5.678,10.007,8.323,12.906-24.821,20.047-53.629,20.047-85.102,0-52.579-19.517-97.828-51.63-128.894-3.008-2.91-6.142-5.675-9.366-8.331-3.209-2.643-6.493-5.194-9.904-7.574,0,0-.001,0-.002-.001-3.408-2.376-6.939-4.578-10.538-6.68,0,0-.001-.001-.002-.001-3.609-2.108-7.296-4.093-11.085-5.914-3.815-1.833-7.724-3.506-11.711-5.038-4.025-1.546-8.137-2.927-12.325-4.153-4.178-1.223-8.42-2.315-12.75-3.208-11.02-2.273-22.504-3.469-34.367-3.469-27.147,0-51.101,4.791-78.248,15.171v-142.922h171.666v-60.682h-231.549v301.014c34.333-35.131,76.651-54.294,118.17-54.294,9.453,0,18.485.85,27.066,2.441ZM1272.65,1004.124h10.041l12.718-37.805,6.42,37.805h11.019l-10.043-59.863h-11.095l-14.003,41.754-13.877-41.754h-11.102l-10.365,59.863h11.109l6.572-37.805,12.605,37.805ZM1349.033,977.835c3.744-1.084,6.707-3.011,8.891-5.778,2.183-2.767,3.276-6.24,3.276-10.418,0-3.77-.835-7.005-2.503-9.705-1.668-2.7-3.947-4.654-6.837-5.861-2.889-1.207-7.603-1.811-14.141-1.811h-12.087v59.863h11.394v-25.354c5.806,0,9.808-.309,12.006-.936ZM1337.027,955.371h3.216c3.526,0,5.942.395,7.243,1.185,1.79,1.062,2.686,2.749,2.686,5.062,0,1.335-.318,2.471-.956,3.411-.638.938-1.513,1.613-2.626,2.02-1.113.408-3.092.613-5.941.613h-3.623v-12.29Z" fill="url(#c)"></path></g></svg>