<?xml version="1.0" encoding="UTF-8"?>
<svg id="_レイヤー_1" data-name="レイヤー_1" xmlns="http://www.w3.org/2000/svg" version="1.1" viewBox="0 0 1211.1 340.1">
  <!-- Generator: Adobe Illustrator 30.5.1, SVG Export Plug-In . SVG Version: 2.1.4 Build 3)  -->
  <defs>
    <style>
      .st0 {
        fill: #333;
      }
    </style>
  </defs>
  <g id="c">
    <path class="st0" d="M90,41.5c-1.1-1.8-3.1-4.5-5.1-7v22.7h-7v-22.3c-2.5,5.4-5.4,10.5-8.3,13.9-.7-2-2.3-5.1-3.5-6.9,3.8-4,7.8-10.7,10.3-16.6h-8.9v-6.8h10.4v-7.4c-3,.5-5.9,1-8.7,1.4-.3-1.6-1.2-4-2-5.5,7.9-1.3,16.8-3.4,22.1-5.8l5.1,5.5c-2.8,1.1-6,2-9.3,2.9v8.9h9.1v6.8h-9.1v1.4c2.1,1.9,8,7.8,9.4,9.3l-4.3,5.4h0ZM115.7,57.3c-.2-1.6-.5-3.6-1-5.5-9,1.3-18.2,2.6-25.2,3.4l-1.7-7.5c1.6-.1,3.6-.3,5.6-.5,3.3-12.5,6.5-30.4,7.8-44.8l8.2,1.3c-2,14.2-5.2,30.7-8.6,42.8,3.9-.4,8-.8,12.1-1.3-1.3-4.3-3-8.9-4.6-12.9l6.9-1.9c3.6,7.9,7.1,18,8.1,24.6l-7.6,2.4Z"/>
    <path class="st0" d="M160.1,9.6c-.1.7-.3,1.4-.5,2.3,3.4-.5,6.8-1.1,10.1-1.9v7.5c-3.6.8-7.7,1.5-11.8,2-.5,2.6-1.1,5.2-1.8,7.7-2.2,8.4-6.2,20.7-9.6,27.9l-8.4-2.8c3.6-6,8.2-18.7,10.4-27.1.4-1.6.9-3.3,1.3-5.1-1.4,0-2.7.1-4,.1-2.9,0-5.2-.1-7.3-.2l-.2-7.5c3.1.4,5.1.5,7.6.5s3.6,0,5.4-.2c.2-1.3.4-2.5.5-3.4.2-2.2.4-4.7.2-6.1l9.2.7c-.5,1.6-1,4.3-1.3,5.7h0ZM167.3,42.4c0,2.7,1.8,4.6,8.3,4.6s8.2-.5,12.5-1.3l-.3,7.7c-3.4.4-7.5.8-12.3.8-10.1,0-15.6-3.5-15.6-9.6s.6-5.7,1.1-8.1l7.2.7c-.5,1.7-.8,3.7-.8,5h0ZM176.5,21.6c3.4,0,7.1.2,10.6.5l-.2,7.2c-3-.4-6.7-.7-10.4-.7s-7.8.2-11.6.6v-7.1c3.4-.3,7.7-.6,11.6-.6h0Z"/>
    <path class="st0" d="M226.8,10.2c-.1.5-.2,1.2-.4,1.9,6.9-.4,15-1.3,22.3-2.8v7.2c-6.1,1-15.7,2.2-23.8,2.6-.8,3.7-1.8,7.5-2.7,10.5,4.9-2.7,9.6-3.8,14.9-3.8,9.8,0,16.2,5.2,16.2,12.9,0,13.6-13.1,18.4-32.5,16.3l-2.1-7.8c13.2,2.2,26.5.5,26.5-8.3s-3.1-6.6-9-6.6-13.1,2.5-16.7,7c-.7.8-1.1,1.6-1.7,2.7l-7.1-2.5c2.9-5.6,5.3-13.6,6.9-20.2-3.8,0-7.4-.2-10.4-.5v-7.5c3.6.6,8.1,1.1,11.8,1.1.1-.9.2-1.7.4-2.5.4-2.6.4-4.1.3-6.1l8.6.4c-.7,2.1-1,4.2-1.4,6.1h0Z"/>
    <path class="st0" d="M284.7,10.9c-.9,4-2.9,17.3-2.9,23.3s0,2.7.2,3.9c.8-2.1,1.8-4.2,2.7-6.2l3.7,3c-1.7,4.9-3.6,11.1-4.3,14.3-.2.8-.3,2.2-.3,2.8s0,1.6.1,2.5l-6.8.5c-1.3-4.2-2.4-11.1-2.4-19.3s1.8-20.5,2.5-25.1c.2-1.7.5-4,.6-5.9l8.3.7c-.5,1.2-1.2,4.3-1.4,5.4h0ZM315.1,8.8c0,1.3-.1,3.6-.2,6.2,3.3-.3,6.4-.8,9.3-1.4v7.5c-2.9.4-6,.8-9.3,1,.1,5.8.4,10.7.7,14.8,5,2,8.8,5.1,11.7,7.8l-4.2,6.3c-2.5-2.3-4.9-4.5-7.4-6.1-.4,5.8-3.6,9.9-11.8,9.9s-13.5-3.5-13.5-9.8,5.2-10.3,13.4-10.3,2.7,0,3.9.2c-.1-3.7-.4-8.1-.4-12.4-1.4,0-2.9,0-4.3,0-3.6,0-7-.1-10.5-.4v-7.2c3.4.4,6.9.5,10.5.5s2.8,0,4.2,0c0-3,0-5.4,0-6.7s-.2-2.8-.4-4h8.6c-.2,1.1-.3,2.6-.4,3.9h0ZM303.2,47.7c3.7,0,4.9-1.9,4.9-5.5v-1.1c-1.6-.4-3.2-.7-4.8-.7-3.4,0-5.7,1.4-5.7,3.7s2.4,3.5,5.6,3.5h0Z"/>
    <path class="st0" d="M339.6,42.9l6.3-5.4c4.3,3.5,10.1,9.5,13.1,13.2l-6.5,5.5c-3.7-4.5-8.8-9.7-13-13.3h0Z"/>
    <path class="st0" d="M422.6,10.4l8.8,1.8c-.5,1.8-1.2,4.7-1.4,6-.8,4.2-3,12.5-5.1,18.1-2.2,5.8-5.7,12.7-8.9,17.2l-8.4-3.6c3.8-4.9,7.4-11.4,9.4-16.8,2.7-6.8,5-15.2,5.7-22.9ZM437.9,12.2l8-2.6c2.5,4.6,6.6,13.9,8.9,19.8,2.1,5.4,5.3,15.1,7,21l-8.9,2.9c-1.7-7.2-3.9-14.8-6.3-21.3-2.3-6.3-6.2-15.2-8.7-19.8h0ZM457.1,1.5c4,0,7.2,3.3,7.2,7.2s-3.3,7.2-7.2,7.2-7.2-3.3-7.2-7.2,3.3-7.2,7.2-7.2ZM457.1,12.2c1.9,0,3.5-1.6,3.5-3.4s-1.6-3.5-3.5-3.5-3.5,1.6-3.5,3.5,1.6,3.4,3.5,3.4Z"/>
    <path class="st0" d="M495.5,33.2l-7.4,2.8c-1-3.3-4-11.3-5.5-13.9l7.2-2.6c1.5,3.1,4.4,10.4,5.6,13.7h0ZM524.7,25.1c-1.6,6.1-4.1,12.4-8.2,17.7-5.6,7.2-13.1,12.3-20.2,14.9l-6.3-6.4c6.6-1.7,15-6.3,20-12.6,4.1-5.1,7-13.1,7.7-20.7l8.4,2.7c-.7,1.9-1.1,3.2-1.4,4.4h0ZM508.8,29.5l-7.2,2.5c-.7-3-3.4-10.2-4.9-13.4l7.2-2.4c1.1,2.6,4.1,10.4,4.9,13.2h0Z"/>
    <path class="st0" d="M566.6,9.8c-.5,1.3-1,2.8-1.7,4.4h26c1.6,0,4.3,0,6.3-.4v8.3c-2.2-.2-4.9-.2-6.3-.2h-8.4c-1.1,16-7.4,26.8-18.3,33.6l-8.1-5.5c2.2-.8,4.3-2.1,5.7-3.3,6.3-4.8,11.3-12.2,12.3-24.8h-12.7c-2.4,4.4-6.1,9.5-9.8,12.7l-7.5-4.6c4.3-3.2,8.1-8.6,10.4-12.4,1.7-2.8,2.8-5.9,3.5-8.2.7-2,1.1-4.3,1.3-6.2l9.3,1.9c-.7,1.5-1.5,3.6-2,4.9h0Z"/>
    <path class="st0" d="M624.9,24.5h32.4c2.8,0,5.5-.2,7-.4v9.5c-1.4,0-4.5-.3-7-.3h-32.4c-3.4,0-7.5.1-9.7.3v-9.5c2.2.2,6.6.4,9.7.4Z"/>
    <path class="st0" d="M700.1,26.9l-4.4,6.8c-3.4-2.4-9.7-6.4-13.7-8.6l4.3-6.6c4.1,2.2,10.7,6.3,13.8,8.5h0ZM704.9,40.6c10.2-5.7,18.7-14,23.4-22.6l4.6,8.2c-5.5,8.4-14.1,16-23.9,21.7-6.1,3.4-14.8,6.5-20.1,7.4l-4.5-7.9c6.8-1.1,14-3.2,20.5-6.8ZM709.3,13.3l-4.5,6.6c-3.4-2.3-9.6-6.4-13.6-8.6l4.3-6.6c4,2.2,10.6,6.4,13.7,8.6h0ZM727.3,15.1l-5.2,2.2c-1.7-3.8-3.1-6.4-5.3-9.5l5.1-2.1c1.7,2.5,4.1,6.6,5.5,9.3h0ZM735.7,11.9l-5.1,2.3c-1.9-3.8-3.4-6.1-5.7-9.2l5.1-2.1c1.9,2.4,4.2,6.3,5.7,9Z"/>
    <path class="st0" d="M776,38.5c10.3-6.1,18.1-15.3,21.9-23.4l4.7,8.5c-4.6,8.1-12.6,16.4-22.3,22.3-6.1,3.7-13.9,7.1-22.4,8.5l-5.1-8c9.4-1.3,17.2-4.4,23.1-7.9h0ZM776,19l-6.1,6.3c-3.1-3.4-10.7-9.9-15.1-13l5.7-6c4.2,2.8,12.1,9.1,15.5,12.8h0Z"/>
    <path class="st0" d="M865.8,11l-4.5,1.9,5.1,3.1c-.7,1.1-1.5,2.8-2,4.3-1.6,5.4-5.1,13.4-10.5,20.1-5.7,7.1-13,12.5-24.3,17.1l-7.1-6.4c12.3-3.7,19-8.9,24.3-14.9,4.1-4.6,7.6-11.9,8.6-16.4h-16.9c-4,5.2-9.3,10.5-15.2,14.6l-6.8-5.1c10.5-6.4,15.8-14.2,18.8-19.4.9-1.4,2.2-4.2,2.7-6.3l8.9,2.9c-1.4,2.1-3,4.8-3.7,6.1,0,.1-.1.2-.2.3h12.1c1.9,0,3.9-.3,5.2-.7l.4.2c-1.2-2.4-2.9-5.6-4.4-7.8l4.8-1.9c1.5,2.2,3.7,6,4.8,8.3h0ZM873,8.2l-4.8,2c-1.3-2.5-3.2-6-4.9-8.3l4.8-1.9c1.6,2.2,3.8,6.1,4.9,8.2Z"/>
    <path class="st0" d="M910,9.8c5.7-.3,11.8-.8,17.1-1.7v7c-5.8.8-13.2,1.3-19.7,1.5-1,2.2-2.2,4.4-3.4,6.1,1.6-.7,4.8-1.2,6.8-1.2,3.7,0,6.7,1.6,8,4.6,3.1-1.4,5.7-2.5,8.1-3.6,2.3-1,4.5-2,6.7-3.1l3,7c-1.9.5-5.1,1.7-7.2,2.5-2.7,1.1-6.1,2.4-9.8,4.1,0,3.4.2,7.8.2,10.6h-7.2c.2-1.8.2-4.7.3-7.4-4.5,2.6-6.9,4.9-6.9,8s2.8,4.2,8.7,4.2,11.8-.7,17.1-1.7l-.2,7.8c-4,.5-11.4,1-17.1,1-9.5,0-16.4-2.3-16.4-10.1s7.2-12.5,14.1-16.1c-.9-1.5-2.5-2-4.2-2-3.4,0-7.1,1.9-9.4,4.2-1.8,1.8-3.6,4-5.6,6.6l-6.4-4.8c6.3-5.8,10.6-11.2,13.3-16.6h-.8c-2.5,0-6.9-.1-10.2-.4v-7.1c3.1.5,7.5.7,10.6.7h2.9c.7-2.4,1.1-4.8,1.2-6.9l8,.7c-.3,1.5-.7,3.5-1.5,6h0Z"/>
    <path class="st0" d="M967,43.6c2.3,4,6.5,5.7,12.7,6,7.2.3,21.5.1,29.7-.5-.8,1.7-1.9,5-2.2,7-7.4.4-20.2.5-27.5.2-7.2-.3-12-2-15.6-6.7-2.8,2.3-5.6,4.7-9,7.2l-3.3-7.2c2.6-1.4,5.7-3.4,8.4-5.5v-13.1h-7.7v-6.6h14.5v19.2h0ZM963.4,16.7c-1.9-2.9-6.4-7.1-10.1-9.8l4.9-4.6c3.7,2.5,8.3,6.4,10.5,9.3l-5.4,5.1h0ZM978.9,47.1h-6.8v-31h13.5c-2.7-1.3-5.6-2.5-8.1-3.4l4.6-3.9c2.1.8,4.6,1.7,7.1,2.8,1.7-1,3.3-2.1,4.8-3.2h-21.5V3h27.7l1.4-.4,4.3,3.4c-3,2.8-6.8,5.7-10.7,8.1,1.3.7,2.6,1.3,3.6,1.9h7.3v24.8c0,2.9-.5,4.4-2.5,5.4-1.9,1-4.5,1-8.1,1-.2-1.7-1-4.1-1.7-5.6,1.9,0,4,0,4.6,0,.7,0,.9-.3.9-.9v-2.8h-7.1v8.8h-6.4v-8.8h-6.9v9h0ZM978.9,21.3v3.3h6.9v-3.3h-6.9ZM985.8,32.9v-3.4h-6.9v3.4h6.9ZM999.3,21.3h-7.1v3.3h7.1v-3.3ZM999.3,32.9v-3.4h-7.1v3.4h7.1Z"/>
    <path class="st0" d="M1039.2,12.7c-.3,6.5-.8,19.9-.8,27.5s3.7,8.1,8.4,8.1c9.9,0,16.2-5.8,20.6-12.4l5.5,6.7c-3.9,5.8-12.5,13.8-26.2,13.8s-16.2-4.3-16.2-14.6.5-23.9.5-29.1-.2-5.8-.7-8.1h9.7c-.4,2.7-.7,5.7-.8,8.1h0ZM1061.2,19.2l-5.4,2.4c-1.8-3.9-3.4-6.8-5.5-9.8l5.2-2.2c1.7,2.5,4.3,6.9,5.7,9.7h0ZM1069.4,15.6l-5.2,2.5c-1.9-3.8-3.6-6.6-5.8-9.6l5.2-2.4c1.7,2.5,4.5,6.8,5.8,9.5Z"/>
    <path class="st0" d="M1096.9,10.3c5-.4,14.9-1.3,26-2.3,6.2-.5,12.8-.9,17.1-1v7.7c-3.2,0-8.4,0-11.6.8-7.3,1.9-12.7,9.8-12.7,16.9s9.3,13.5,19.5,14l-2.8,8.3c-12.6-.8-24.5-7.7-24.5-20.7s4.9-15.5,8.9-18.6c-5.7.6-18,1.9-24.9,3.4l-.8-8.3c2.4,0,4.8-.2,6-.3h0Z"/>
    <path class="st0" d="M323.5,178.6c2.2,1.5,7.2,5.5,8.6,6.6l-4.2,5.1c-1-1.2-2.7-3-4.4-4.7v12.8h-6.9v-12.1c-2.4,3.4-5.1,6.4-7.7,8.5-1.1-1.6-3.1-3.9-4.6-5.1,3.9-2.6,8.1-7.1,10.8-11.6h-9.2v-6h10.6v-4.6h-10.8v-5.9h5.5c-.2-2-1-4.6-1.8-6.6l3.7-.8h-6.8v-5.8h10.1v-5.5h6.9v5.5h10v5.8h-6.2l3.5.7c-1.1,2.6-2,5-2.9,6.8h6.1v5.9h-10.5v4.6h9.9v6h-9.9v.5h0ZM315.1,154c1,2,1.8,4.8,2,6.6l-3,.8h11.8l-4-.8c.8-1.8,1.7-4.6,2.2-6.6h-9.1ZM361.3,168.7h-5.7v29.5h-6.9v-29.5h-6.1c0,9-1.3,21.7-9.3,30-.9-1.6-3.5-4-5.1-4.9,6.9-7.4,7.7-17.6,7.7-25.9v-20.9l4.2,1.1c5.7-1.4,11.7-3.3,15.4-5.3l5.7,5.2c-5.3,2.3-12.2,4.2-18.5,5.5v8.4h18.8v6.6h0Z"/>
    <path class="st0" d="M398.5,150.8c-.1.7-.3,1.4-.5,2.3,3.4-.5,6.8-1.1,10.1-1.9v7.5c-3.6.8-7.7,1.5-11.8,2-.5,2.6-1.1,5.2-1.8,7.7-2.2,8.4-6.2,20.7-9.6,27.9l-8.4-2.8c3.6-6,8.2-18.7,10.4-27.1.4-1.6.9-3.3,1.3-5.1-1.4,0-2.7.1-4,.1-2.9,0-5.2-.1-7.3-.2l-.2-7.5c3.1.4,5.1.5,7.6.5s3.6,0,5.4-.2c.2-1.3.4-2.5.5-3.4.2-2.2.4-4.7.2-6.1l9.2.7c-.5,1.6-1,4.3-1.3,5.7h0ZM405.8,183.6c0,2.7,1.8,4.6,8.3,4.6s8.2-.5,12.5-1.3l-.3,7.7c-3.4.4-7.5.8-12.3.8-10.1,0-15.6-3.5-15.6-9.6s.6-5.7,1.1-8.1l7.2.7c-.5,1.7-.8,3.7-.8,5h0ZM414.9,162.8c3.4,0,7.1.2,10.6.5l-.2,7.2c-3-.4-6.7-.7-10.4-.7s-7.8.2-11.6.6v-7.1c3.4-.3,7.7-.6,11.6-.6h0Z"/>
    <path class="st0" d="M465.6,153c3-.5,5.8-1.2,8.1-1.9l.2,7c-2.8.7-6.5,1.5-10.5,2.1-2.9,8.4-8,19-12.9,25.8l-7.3-3.7c4.8-5.9,9.6-14.8,12.3-21.3-1.1,0-2.1,0-3.1,0-2.5,0-4.9,0-7.5-.2l-.5-7c2.6.3,5.8.4,8,.4s3.6,0,5.5-.2c.8-3.3,1.5-6.9,1.6-10.1l8.3.8c-.5,1.9-1.3,5-2.2,8.3ZM481.9,171.2c0,1.7.2,4.6.4,7.7,5.2,1.9,9.4,4.9,12.5,7.7l-4,6.4c-2.1-1.9-4.8-4.5-8.1-6.4v.6c0,5.6-3.1,9.9-11.6,9.9s-13.4-3.3-13.4-9.9,4.9-10.4,13.3-10.4,2.8.1,4.2.2c-.2-4.5-.5-9.8-.7-13.5h7.5c-.2,2.5,0,5.1,0,7.7h0ZM469.9,190.2c4.2,0,5.4-2.3,5.4-5.6v-1.2c-1.6-.4-3.2-.6-4.9-.6-3.5,0-5.7,1.6-5.7,3.7s1.9,3.7,5.2,3.7h0ZM477.8,158.1l3.9-6c4.3,1.9,11.8,6,14.9,8.2l-4.3,6.3c-3.5-2.8-10.4-6.7-14.5-8.6h0Z"/>
    <path class="st0" d="M527.9,144.4c-1.5,4-3.4,8-5.4,11.9v42.2h-6.8v-31.5c-1.2,1.6-2.4,3.1-3.7,4.5-.7-1.7-2.5-5.5-3.7-7.2,5.2-5.2,10.1-13.6,13.1-21.9l6.4,2h0ZM554.4,154.5v7.5h10.2v34.8h-6.9v-3.1h-23.9v3.4h-6.6v-35.1h9.7v-7.5h-10.3v-6.4h38.3v6.4h-10.5,0ZM533.8,187.6h3.7v-19.3h-3.7v19.3ZM543.6,168.3v19.3h4v-19.3h-4ZM547.6,154.5h-4v7.5h4v-7.5ZM557.7,168.3h-4v19.3h4v-19.3h0Z"/>
    <path class="st0" d="M596.8,144.6c-1.6,4.2-3.6,8.4-5.8,12.4v41.4h-6.8v-30.8c-1.3,1.7-2.7,3.4-4.1,4.8-.7-1.8-2.6-5.7-3.8-7.4,5.4-5.4,10.6-14,13.7-22.6l6.8,2.2h0ZM633.5,195.7h-30.7v2.7h-6.6v-37.8h6.6v28.9h30.7v6.1ZM612.2,157.2c.1-1,.2-2.2.4-3.3h-15v-6.1h15.5c.1-1.9.2-3.7.3-5.4l7.2.3c-.1,1.6-.3,3.4-.5,5.1h13.1v6.1h-13.8c-.2,1.1-.3,2.3-.5,3.3h11.8v29.3h-24.3v-29.3h5.8ZM623.8,162.4h-10.7v3.1h10.7v-3.1ZM623.8,170.3h-10.7v3.1h10.7v-3.1ZM623.8,178.1h-10.7v3.1h10.7v-3.1Z"/>
    <path class="st0" d="M671.5,151c5.7-.3,11.8-.8,17.1-1.7v7c-5.8.8-13.2,1.3-19.7,1.5-1,2.2-2.2,4.4-3.4,6.1,1.6-.7,4.8-1.2,6.8-1.2,3.7,0,6.7,1.6,8,4.6,3.1-1.4,5.7-2.5,8.1-3.6,2.3-1,4.5-2,6.7-3.1l3,7c-1.9.5-5.1,1.7-7.2,2.5-2.7,1.1-6.1,2.4-9.8,4.1,0,3.4.2,7.8.2,10.6h-7.2c.2-1.8.2-4.7.3-7.4-4.5,2.6-6.9,4.9-6.9,8s2.8,4.2,8.7,4.2,11.8-.7,17.1-1.7l-.2,7.8c-4,.5-11.4,1-17.1,1-9.5,0-16.5-2.3-16.5-10.1s7.2-12.5,14.1-16.1c-.9-1.5-2.5-2-4.2-2-3.4,0-7.1,1.9-9.4,4.2-1.8,1.8-3.6,4-5.6,6.6l-6.4-4.8c6.3-5.8,10.6-11.2,13.3-16.6h-.8c-2.5,0-6.9-.1-10.2-.4v-7.1c3.1.5,7.5.7,10.6.7h2.9c.7-2.4,1.1-4.8,1.2-6.9l8,.7c-.3,1.5-.7,3.5-1.5,6h0Z"/>
    <path class="st0" d="M727.1,176.1v14c0,3.3-.5,5.1-2.3,6.1-1.8,1.2-4.5,1.4-8.3,1.4-.2-1.7-1-4.7-1.9-6.6,2.2,0,4.3,0,5,0,.7,0,1-.2,1-1v-12.1c-2,.5-3.8,1.1-5.5,1.6l-1.6-6.9c2-.4,4.5-1.1,7.2-1.7v-10.7h-6.5v-6.6h6.5v-11.4h6.5v11.4h6v6.6h-6v8.9l5.4-1.4,1,6.4-6.4,1.9ZM754.5,191.3c1.4.1,2.7.2,4.2.2s9.5,0,12.1,0c-.8,1.4-1.7,4.5-1.9,6.3h-10.5c-7.9,0-14-1.4-18.1-8.7-1.5,3.8-3.7,7-6.3,9.5-1.1-1.1-3.9-3.4-5.3-4.3,5-4,7.5-10.7,8.4-18.9l6.5.8c-.3,2.2-.7,4.2-1.1,6.1,1.3,3.5,3.1,5.7,5.2,7v-15.7h-14.2v-5.8h35.6v5.8h-14.7v5.3h11.5v5.6h-11.5v6.9h0ZM766.2,164.9h-29.7v-20.8h29.7v20.8ZM759.3,149.2h-16.3v3h16.3v-3ZM759.3,156.8h-16.3v3.1h16.3v-3.1Z"/>
    <path class="st0" d="M801.5,144.5c-1.6,4.2-3.6,8.4-5.7,12.5v41.5h-7.1v-30.6c-1.3,1.6-2.5,3.1-3.8,4.5-.7-1.8-2.6-5.7-3.9-7.5,5.4-5.4,10.7-13.9,13.7-22.5l6.7,2.1h0ZM815.5,184.4c-3,5.2-7.8,10.5-12,14-1.3-1.3-4-3.6-5.6-4.5,4.2-2.8,8.4-7.2,10.9-11.5l6.7,2h0ZM838.2,172.8v7h-39.1v-7h8.1v-12h-6.6v-6.9h6.6v-11.3h7v11.3h8.7v-11.3h7v11.3h7.8v6.9h-7.8v12h8.3ZM814.2,172.8h8.7v-12h-8.7v12ZM827.7,182.2c3.9,3.8,8.1,8.9,10.2,12.4l-6,3.8c-1.9-3.6-6.1-9.2-9.9-13.1l5.7-3.1Z"/>
    <path class="st0" d="M869.7,153.5c-.2,6.5-.7,20-.7,27.5s3.6,8.1,8.3,8.1c9.9,0,16.3-5.7,20.6-12.3l5.5,6.6c-3.9,5.8-12.4,13.9-26.2,13.9s-16.3-4.3-16.3-14.6.6-23.9.6-29.1-.2-5.7-.8-8.1h9.7c-.4,2.7-.7,5.7-.8,8.1h0Z"/>
    <path class="st0" d="M23.4,338.3l-6.4-6.1c11.6-4,16.8-9.2,16.8-24v-2.3h-14.3v8.2c0,2.7.2,5.1.2,6.3h-8.4c.2-1.2.4-3.6.4-6.3v-8.2h-5.1c-3,0-5.2.1-6.5.2v-8.2c1,.2,3.5.5,6.5.5h5.1v-6c0-1.8-.2-3.6-.4-5.4h8.6c-.2,1.1-.4,3.1-.4,5.4v6h14.3v-6.3c0-2.4-.2-4.4-.4-5.6h8.6c-.2,1.2-.4,3.2-.4,5.6v6.3h4.5c3.2,0,5-.1,6.6-.4v8c-1.3-.1-3.4-.2-6.6-.2h-4.5v2c0,14.9-3.6,24-18.1,30.4h0Z"/>
    <path class="st0" d="M112.8,297.3c-2,4.7-5.4,11.2-9.5,16.6,6,5.2,13.3,12.9,16.8,17.2l-6.9,6c-3.9-5.4-9.5-11.6-15.2-17.1-6.4,6.8-14.4,13-22.7,16.9l-6.2-6.5c9.7-3.6,19-11,24.7-17.3,4-4.5,7.7-10.5,9-14.8h-20.4c-2.5,0-5.8.4-7.1.4v-8.6c1.6.2,5.3.4,7.1.4h21.3c2.6,0,5-.4,6.2-.8l4.9,3.7c-.5.7-1.6,2.5-2.1,3.7h0Z"/>
    <path class="st0" d="M143.7,304h39.5c1.3,0,3.9-.1,5.5-.4v7.8c-1.5-.1-3.8-.2-5.5-.2h-14.5c-.4,6.2-1.7,11.3-3.9,15.5-2.1,4.2-6.8,8.9-12.1,11.6l-7.1-5.1c4.3-1.6,8.5-5.1,10.9-8.6,2.5-3.7,3.5-8.3,3.7-13.3h-16.6c-1.8,0-4.1.1-5.8.2v-7.9c1.8.2,3.9.4,5.8.4h0ZM151.3,288.7h24.2c2,0,4.5-.1,6.5-.4v7.8c-2-.1-4.4-.2-6.5-.2h-24.2c-2.1,0-4.6.1-6.5.2v-7.8c2,.3,4.5.4,6.4.4h0Z"/>
    <path class="st0" d="M227.7,286.8h9.6c-.4,1.9-.5,5.2-.5,7.1v6.6h13.6c2.8,0,5.3-.2,6.6-.4v8.2c-1.3,0-4.2-.2-6.6-.2h-13.6c-.4,12.1-4.2,22-17.2,29.8l-7.5-5.5c11.8-5.4,15.9-14,16.3-24.2h-15.4c-2.7,0-5.1.2-6.9.3v-8.3c1.8.2,4.3.4,6.7.4h15.7v-6.6c0-2-.2-5.2-.8-7.1h0Z"/>
    <path class="st0" d="M319.4,291.6l-2.2.9,3.9,2.5c-.6,1.1-1,2.9-1.3,4.2-1.4,5.9-4,15.2-9.1,21.9-5.4,7.2-13.4,13.2-24.2,16.7l-6.6-7.2c11.9-2.8,18.7-8,23.6-14.2,4-5,6.3-11.8,7.1-17h-28c-2.8,0-5.6.1-7.2.2v-8.5c1.7.2,5.2.5,7.2.5h27.9c.7,0,1.7,0,2.8-.1-1-2-2.2-4.1-3.4-5.8l4.9-2c1.6,2.3,3.6,5.8,4.6,8h0ZM328,290.1l-5,2.2c-1.3-2.5-3.2-5.9-4.8-8.1l5-2c1.5,2.2,3.7,5.8,4.8,8h0Z"/>
    <path class="st0" d="M349.8,317.8c1.7-5.2,1.7-16.6,1.7-23.9s-.2-4-.5-5.5h8.9c0,.3-.4,3-.4,5.5,0,7.1-.2,19.8-1.8,25.9-1.8,6.8-5.6,12.7-10.7,17.3l-7.4-4.9c5.3-3.7,8.6-9.3,10.2-14.4h0ZM368,328.7v-35.1c0-2.7-.4-5-.5-5.2h9c0,.2-.4,2.5-.4,5.2v31.5c4.9-2.1,10.8-6.9,14.9-12.7l4.6,6.6c-5,6.5-13.7,13-20.4,16.5-1.3.7-2,1.3-2.6,1.8l-5.1-4.2c.2-1.1.5-2.8.5-4.5h0Z"/>
    <path class="st0" d="M431.6,294.2c3-.5,5.8-1.2,8.1-1.9l.2,7c-2.8.7-6.5,1.5-10.5,2.1-2.9,8.4-8,19-12.9,25.8l-7.3-3.7c4.8-5.9,9.6-14.8,12.3-21.3-1.1,0-2.1,0-3.1,0-2.5,0-4.9,0-7.5-.2l-.5-7c2.6.3,5.8.4,8,.4s3.6,0,5.5-.2c.8-3.3,1.5-6.9,1.6-10.1l8.3.8c-.5,1.9-1.3,5-2.2,8.3h0ZM447.8,312.4c0,1.7.2,4.6.4,7.7,5.2,1.9,9.4,4.9,12.5,7.7l-4,6.4c-2.1-1.9-4.8-4.5-8.1-6.4v.6c0,5.6-3.1,9.9-11.6,9.9s-13.4-3.3-13.4-9.9,4.9-10.4,13.3-10.4,2.8.1,4.2.2c-.2-4.5-.5-9.8-.7-13.5h7.5c-.2,2.5,0,5.1,0,7.7h0ZM435.8,331.4c4.2,0,5.4-2.3,5.4-5.6v-1.2c-1.6-.4-3.2-.6-4.9-.6-3.5,0-5.7,1.6-5.7,3.7s1.9,3.7,5.2,3.7h0ZM443.8,299.3l3.9-6c4.3,1.9,11.8,6,14.9,8.2l-4.3,6.3c-3.5-2.8-10.4-6.7-14.5-8.6h0Z"/>
    <path class="st0" d="M497.7,323.3c-1.3-1.7-3.3-4.1-5.4-6.3v22.7h-7.1v-20.8c-2.4,2.2-4.9,4.2-7.5,5.8-.6-1.9-2.3-5.4-3.4-6.8,6.6-3.6,12.9-9.9,16.8-16.8h-14.5v-6.5h8.6v-11.1h7.1v11.1h2.7l1.3-.3,4,2.6c-1.8,4.6-4.2,8.9-7.1,12.9,2.9,2.3,7.5,6.5,8.8,7.7l-4.3,5.8h0ZM532.3,331v7h-34.1v-7h13.9v-22.1h-11.4v-6.9h11.4v-18h7.4v18h11.4v6.9h-11.4v22.1h12.8Z"/>
    <path class="st0" d="M557.7,303.7c-3.2,2.3-6.7,4.3-10.2,6-.8-1.7-2.7-4.5-4.2-6,10.2-4.5,19.8-13.1,24.3-20.2h7.5c6.4,8.9,16,15.7,25.5,19.1-1.8,1.9-3.4,4.5-4.6,6.6-3.3-1.6-6.8-3.6-10.1-5.8v4.8h-28.1v-4.4h0ZM547,313.1h49.8v6.6h-27c-1.8,3.6-3.7,7.3-5.5,10.7,5.8-.2,12-.4,18.1-.7-1.9-2.2-3.9-4.3-5.9-6.1l6.3-3.3c5.4,4.7,11,11,13.8,15.5l-6.7,4c-.6-1.1-1.4-2.4-2.4-3.7-14.2.8-29,1.4-39.3,1.9l-1-7,9.1-.3c1.6-3.4,3.3-7.4,4.6-10.9h-14v-6.6h0ZM583.2,301.5c-4.6-3.5-8.8-7.4-11.6-11.1-2.6,3.7-6.4,7.6-11,11.1h22.6Z"/>
    <path class="st0" d="M642.6,337.3l-4.5-7.2c2.3-.2,4-.6,5.6-1,7.7-1.8,13.7-7.4,13.7-16.2s-4.5-14.5-12.7-15.9c-.8,5.1-1.9,10.7-3.6,16.3-3.6,12.2-8.8,19.6-15.4,19.6s-12.2-7.4-12.2-17.5,12.1-25.8,27.7-25.8,24.3,10.4,24.3,23.5-7.8,21.7-23,24h0ZM626,323.8c2.5,0,4.9-3.8,7.4-11.9,1.4-4.5,2.5-9.6,3.2-14.6-9.9,2-15.3,10.8-15.3,17.5s2.4,9,4.8,9h0Z"/>
    <path class="st0" d="M714.7,325c4.3,4.8,11,7.6,20.5,8.6-1.4,1.5-3.3,4.3-4.2,6.3-11.4-1.8-18.6-6.1-23.4-13.6-3.6,5.4-10.2,10.1-22.5,13.4-.8-1.6-2.9-4.3-4.5-5.8,10.1-2.3,15.9-5.4,19.2-9h-18.1v-6.2h21.6c.3-1.3.5-2.5.6-3.8h-15.4v-5.8h15.5v-3.6h-16.5v-4h-5.4v-12.8h22v-5.2h7.4v5.2h22.1v12.8h-4.8v4h-17.6v3.6h16.4v5.8h-16.5c0,1.3-.2,2.5-.5,3.8h23.8v6.2h-19.8ZM704,299.8v-3.4h7.2v3.4h15v-4.8h-36.9v4.8h14.7Z"/>
    <path class="st0" d="M770.9,324.9c-7.6,2.2-15.7,4.6-21.9,6.4l-1.9-6.8c2.5-.5,5.4-1.3,8.7-2.2v-12.1h-6.7v-6.6h6.7v-10.5h-7.2v-6.6h21.1v6.6h-6.9v10.5h6.3v6.6h-6.3v10.3c2.3-.7,4.8-1.3,7.2-2l1,6.3h0ZM797.7,333.3c1,0,1.3-1,1.4-7,1.4,1.1,4.2,2.2,6,2.7-.6,8.3-2.2,10.5-6.6,10.5h-4.5c-5.5,0-6.8-2-6.8-8.1v-11.8h-3.7c-1.1,9.8-3.9,16.8-16.7,20.6-.7-1.7-2.5-4.5-4-5.9,10.9-2.7,12.8-7.7,13.6-14.7h-4.4v-33.7h29.4v33.7h-7.4v11.8c0,1.8.1,2,1.1,2h2.5ZM778.8,295.3h15.7v-3.7h-15.7v3.7ZM778.8,304.5h15.7v-3.7h-15.7v3.7ZM778.8,313.6h15.7v-3.7h-15.7v3.7Z"/>
    <path class="st0" d="M830.3,293.7c-.8,4-2.9,16.1-2.9,22.1s0,2.7.2,3.9c.9-2,1.9-4.2,2.7-6.1l3.7,3c-1.7,5-3.7,11.6-4.3,14.8-.2.9-.3,2.2-.3,2.8s0,1.6.1,2.5l-7,.5c-1.2-4.2-2.3-11.5-2.3-19.7s1.9-19.2,2.5-23.9c.2-1.7.5-4,.6-5.9l8.4.7c-.5,1.3-1.3,4.3-1.5,5.4h0ZM845.2,323.1c0,2.7,2.3,4.3,8.4,4.3s9.8-.5,15.1-1.6v8.1c-3.8.7-8.6,1.1-15.4,1.1-10.4,0-15.4-3.7-15.4-9.9s.4-4.8,1-7.8l6.9.7c-.5,2-.7,3.4-.7,5.1h0ZM867,292.3v7.8c-7.4.7-18.3.7-25.9,0v-7.7c7.4,1,19.4.7,25.9,0h0Z"/>
    <path class="st0" d="M923.5,329.7c5.9,2.2,12.3,4.9,16.2,6.8l-8,3.3c-3.6-2-9.8-5-16-7.4l4.6-2.7h-15.8l4.5,2c-5,3.4-12.7,6.4-18.9,8.2-1.2-1.4-3.7-4-5.2-5.2,5.5-1,11.6-2.9,15.9-4.9h-8.6v-26.5h40.6v26.5h-9.2ZM938.9,300.7h-52.9v-5.5h22.6v-3.6h-17.2v-5.5h42.4v5.5h-17.8v3.6h23v5.5h0ZM899.4,310.7h25.7v-2.8h-25.7v2.8ZM899.4,317.9h25.7v-3h-25.7v3ZM899.4,325.1h25.7v-3h-25.7v3Z"/>
    <path class="st0" d="M999,306.5c1.6,11.4,4.6,21.8,10.5,27.4-1.6,1.3-3.9,4-5,5.9-4.3-4.5-7-11-8.9-18.6-1.9,6.6-5,13.1-10.3,18.6-.7-.8-1.7-1.9-2.9-3-.3.6-.8,1.1-1.4,1.4-1.7,1-3.9,1.1-7,1.1-.1-1.6-.8-4.2-1.6-5.7,1.6,0,3.3,0,3.9,0,.5,0,.7-.2.7-.8v-27.7h-17v34.4h-5.9v-40.1h11v-5h-11.6v-6h11.6v-4.9h6.8v4.9h12.1v6h-12.1v5h11.2v32c6-7.5,7.6-16.9,8-24.9h-7.2v-6.6h7.4v-16.5h7v16.5h9.7v6.6h-8.9,0ZM971.2,327.4v9.6h-5.4v-9.6h-4.5v-5h4.5v-3.6h-4.5v-5.1h2.2c-.2-1.9-1.1-4.6-2-6.7l3.7-1.1c1,2,2,5,2.2,6.8l-3,1h8.3l-3.4-.8c.7-2.1,1.6-5.2,2-7.2l4.5,1c-1.1,2.6-2.1,5.2-2.9,7.1h2.7v5.1h-4.5v3.6h4.4v5h-4.4,0ZM1002.9,297.6c-.5-2.7-2.4-7-4.3-10.2l5.6-2.1c2,3.1,4,7.2,4.7,10l-6,2.3h0Z"/>
    <path class="st0" d="M1040.1,294.7c-.2,6.5-.7,20-.7,27.5s3.6,8.1,8.3,8.1c9.9,0,16.3-5.7,20.6-12.3l5.5,6.6c-3.9,5.8-12.4,13.9-26.2,13.9s-16.3-4.3-16.3-14.6.6-23.9.6-29.1-.2-5.7-.8-8.1h9.7c-.4,2.7-.7,5.7-.8,8.1h0Z"/>
    <path class="st0" d="M1122.2,290c0,.6,0,1.5,0,2.5,4.9-.2,9.9-.7,15.2-1.6v6.9c-4,.5-9.5,1-15.4,1.3v6.2c6.1-.3,11.2-.8,16.1-1.4v7.1c-5.5.6-10.2,1-16,1.2.1,2.3.2,4.8.4,7.2,7.6,2.2,13.4,6.2,16.9,9.1l-4.3,6.8c-3.3-3-7.4-6.2-12.2-8.4,0,.8,0,1.6,0,2.2,0,5.1-3.9,9.1-11.9,9.1s-14.7-3.7-14.7-10.1,5.6-10.4,14.9-10.4,2.5,0,3.7.2c-.1-1.9-.2-3.8-.2-5.6h-3.1c-3.5,0-10.4-.3-14.3-.8v-7.1c3.9.7,11.3,1.1,14.5,1.1h2.9c0-2,0-4.2,0-6.2h-2.2c-3.8,0-10.8-.5-14.8-1.1l-.2-6.9c4.3.7,11.2,1.3,14.9,1.3h2.4v-2.8c0-1.1-.1-3-.4-4.2h8.1c-.2,1.2-.3,2.7-.4,4.3h0ZM1110.1,331.3c3.2,0,5.3-.9,5.3-4.4s0-1.5,0-2.6c-1.6-.2-3.3-.4-4.9-.4-4.3,0-6.6,1.7-6.6,3.7s2.2,3.7,6.3,3.7h0Z"/>
    <path class="st0" d="M1193.7,291.1c0,.5,0,1.1,0,1.9,6.1,0,14.3-.1,17.5,0v7.1c-3.7-.2-9.3-.3-17.5-.3,0,3.1,0,6.4,0,9,1.4,2.3,2.2,5.1,2.2,8.3,0,7.8-4.6,17.8-19.3,21.9l-6.4-6.4c6.1-1.3,11.4-3.3,14.7-6.9-.8.2-1.7.3-2.7.3-4.6,0-10.4-3.7-10.4-11.1s5.5-11.3,12.1-11.3,1.6,0,2.4.2c0-1.3,0-2.7,0-4-9.1.1-18.5.5-25.9.9l-.2-7.3c6.9,0,17.8-.2,26-.4,0-.8,0-1.4-.1-1.9-.2-2.5-.4-4.5-.6-5.2h8.7c-.1,1-.4,4.2-.4,5.2h0ZM1183.6,319.3c2.5,0,4.8-1.9,3.9-7.2-.8-1.4-2.3-2.1-3.9-2.1-2.4,0-4.6,1.6-4.6,4.8s2.2,4.5,4.6,4.5h0Z"/>
  </g>
</svg>