<?xml version="1.0" encoding="UTF-8"?>
<svg id="_レイヤー_1" data-name="レイヤー_1" xmlns="http://www.w3.org/2000/svg" version="1.1" viewBox="0 0 823.2 342.4">
  <!-- Generator: Adobe Illustrator 30.5.1, SVG Export Plug-In . SVG Version: 2.1.4 Build 3)  -->
  <defs>
    <style>
      .st0 {
        fill: #333;
      }
    </style>
  </defs>
  <g id="c">
    <g>
      <path class="st0" d="M55.3,46.7v7.4H2.6v-7.4h52.7ZM52,6.9v7.3H6v-7.3s46,0,46,0ZM47.2,26.2v7.3H10.2v-7.3s37,0,37,0Z"/>
      <path class="st0" d="M96.7,28.5c-1.9,6.1-6.4,9.3-18.9,11.3-.6-1.6-2.2-4.2-3.3-5.5,10.2-1,13.6-2.6,15.1-5.8h-14.1v-5.6h23.3v-2.5h-16.6v-5.4h16.6v-3.1h7.1v3.1h17.4v5.4h-17.4v2.5h23.7v5.6h-16.2v1.3c0,1.3.4,1.5,2.5,1.5h6.5c1.5,0,1.8-.2,2.1-2.4,1.2.8,3.8,1.6,5.4,1.9-.6,4.4-2.4,5.6-6.7,5.6h-8.1c-6.6,0-8.1-1.5-8.1-6.6v-1.3h-10.3ZM121.7,39.9c-2.6,4.1-6.3,7.3-10.6,9.8,5.7,1.3,12.3,1.9,19.5,2.2-1.3,1.5-2.9,4.1-3.7,5.9-9.3-.6-17.4-1.9-24.1-4.4-7.5,2.5-16.4,3.8-25.7,4.5-.5-1.8-1.6-4.4-2.6-6,7.2-.3,14.1-1,20.3-2.4-1.8-1.2-3.5-2.5-5-4.1-2.4,1.1-4.9,2.1-7.8,3-.7-1.6-2.6-3.9-3.9-5,9.5-2.3,15.7-6,19.1-9.8l7,1.5c-.7.8-1.5,1.6-2.3,2.4h14.1l1.3-.3,4.5,2.7h0ZM88.4,10.4h-13.1v-5.9h13.1V1.1h7.2v3.5h13.7V1.1h7.2v3.5h13.1v5.9h-13.1v3.2h-7.2v-3.2h-13.7v3h-7.2s0-3,0-3ZM95.1,42.6c1.9,1.8,4.4,3.3,7.4,4.6,3.2-1.2,6.1-2.8,8.3-4.7h-15.7Z"/>
      <path class="st0" d="M190.6,12.2c-1,1.8-1.9,3.4-2.7,4.7h12.1v32.9c0,3.6-.7,5.5-3.1,6.7-2.4,1.1-5.8,1.2-10.5,1.2-.3-1.7-1.2-4.3-2.1-6.1h-14.8v3.3h-6.4v-19.1h23.8v15.1c2.1,0,4,0,4.7,0,1,0,1.3-.3,1.3-1.2v-18.6c-.9,1.8-2.4,2.4-4.9,2.4h-4.9c-5.4,0-6.5-1.6-6.5-6.6v-3.9h-4.9c-.5,6.7-2.8,10.6-12,12.7-.4-1.2-1.5-3-2.6-4.2v26h-6.9V16.9h10.8c-.5-1.5-1.2-3.3-1.9-4.7h-11v-6.6h22.6V1.1h7.3v4.6h23.2v6.6h-10.8,0ZM157.2,30.8c6.5-1.3,7.9-3.5,8.3-7.7h-8.3v7.7ZM179.9,16.9c.7-1.5,1.6-3.2,2.2-4.7h-15.2c.8,1.6,1.6,3.4,1.9,4.7h11,0ZM180.4,41.2h-10.9v5.1h10.9v-5.1ZM193,23.1h-10.1v3.8c0,1.3.2,1.5,1.2,1.5h3.2c1,0,1.3-.4,1.5-3.3.9.6,2.7,1.3,4.3,1.7v-3.6h0Z"/>
      <path class="st0" d="M275.1,40.9h-6.3v10.6h-7.3v-2.5h-10.9v1.9c0,3.6-.8,5-3.2,6.1-2.3.9-5.6,1-10.7,1-.4-1.7-1.5-4.2-2.4-5.7,2.9.1,6.5.1,7.5.1,1.2,0,1.5-.4,1.5-1.5v-1.9h-18.5v-5.2h18.5v-2.9h-24v-5.5h24v-2.6h-18v-4.9h18v-2.7h-16.5v-12h16.5v-2.5h-22.6v-5.7h22.6V1h7.3v3.9h23.2v5.7h-23.2v2.5h17.2v12h-17.2v2.7h18.3v7.5h6.3v5.5h0ZM243.2,20.6v-2.9h-9.5v2.9h9.5ZM250.5,17.7v2.9h9.8v-2.9h-9.8,0ZM250.5,35.3h10.9v-2.6h-10.9v2.6h0ZM261.4,40.9h-10.9v2.9h10.9v-2.9Z"/>
      <path class="st0" d="M306.4,10.5l8.9,1.8c-.5,1.8-1.2,4.7-1.5,6.1-.8,4.2-3,12.6-5.2,18.3-2.2,5.9-5.8,12.8-9,17.4l-8.5-3.6c3.8-5,7.4-11.5,9.5-16.9,2.7-6.8,5-15.4,5.8-23.1ZM321.8,12.3l8.1-2.6c2.5,4.7,6.7,14,9,19.9,2.1,5.5,5.3,15.2,7,21.2l-9,2.9c-1.7-7.2-3.9-14.9-6.3-21.4-2.3-6.4-6.2-15.4-8.8-20ZM341.1,1.5c4,0,7.3,3.3,7.3,7.3s-3.3,7.2-7.3,7.2-7.3-3.3-7.3-7.2,3.3-7.3,7.3-7.3ZM341.1,12.3c1.9,0,3.5-1.6,3.5-3.5s-1.6-3.5-3.5-3.5-3.5,1.6-3.5,3.5,1.6,3.5,3.5,3.5Z"/>
      <path class="st0" d="M379.8,33.4l-7.4,2.8c-1-3.3-4.1-11.4-5.5-14l7.3-2.6c1.5,3.1,4.4,10.4,5.6,13.8h0ZM409.2,25.3c-1.6,6.1-4.1,12.4-8.3,17.8-5.6,7.3-13.2,12.4-20.3,15.1l-6.4-6.5c6.7-1.8,15.1-6.4,20.2-12.7,4.1-5.2,7-13.2,7.8-20.8l8.5,2.7c-.7,1.9-1.1,3.2-1.5,4.4h0ZM393.2,29.7l-7.3,2.5c-.7-3-3.4-10.3-4.9-13.5l7.2-2.4c1.2,2.6,4.1,10.5,5,13.3h0Z"/>
      <path class="st0" d="M449.1,9.8c-.5,1.3-1,2.9-1.7,4.4h26.2c1.6,0,4.3,0,6.3-.4v8.3c-2.2-.2-4.9-.2-6.3-.2h-8.5c-1.1,16.1-7.4,27-18.4,33.9l-8.2-5.5c2.2-.8,4.3-2.1,5.8-3.3,6.4-4.9,11.4-12.3,12.4-25h-12.8c-2.4,4.4-6.2,9.6-9.8,12.7l-7.6-4.6c4.3-3.2,8.2-8.7,10.5-12.5,1.7-2.8,2.8-5.9,3.5-8.3.7-2,1.2-4.4,1.3-6.3l9.4,1.9c-.7,1.5-1.5,3.6-2,4.9h0Z"/>
      <path class="st0" d="M505.4,24.7h32.6c2.9,0,5.5-.2,7.1-.4v9.5c-1.5,0-4.6-.3-7.1-.3h-32.6c-3.5,0-7.5.1-9.8.3v-9.5c2.2.2,6.6.4,9.8.4Z"/>
      <path class="st0" d="M581.1,27.1l-4.4,6.8c-3.5-2.4-9.8-6.5-13.8-8.7l4.4-6.7c4.1,2.2,10.8,6.4,13.9,8.6ZM586,40.9c10.3-5.8,18.8-14.1,23.6-22.8l4.7,8.3c-5.6,8.4-14.2,16.1-24.1,21.9-6.2,3.5-14.9,6.5-20.3,7.5l-4.6-8c6.8-1.2,14.1-3.2,20.6-6.9h0ZM590.4,13.4l-4.5,6.7c-3.4-2.4-9.7-6.4-13.7-8.7l4.4-6.7c4,2.2,10.7,6.4,13.8,8.7ZM608.5,15.2l-5.3,2.2c-1.8-3.8-3.2-6.4-5.3-9.5l5.1-2.1c1.7,2.5,4.1,6.6,5.5,9.4h0ZM617,12l-5.2,2.3c-1.9-3.8-3.5-6.2-5.7-9.2l5.2-2.1c1.9,2.4,4.2,6.4,5.7,9Z"/>
      <path class="st0" d="M657.6,38.8c10.4-6.1,18.3-15.4,22.1-23.6l4.7,8.6c-4.6,8.2-12.7,16.6-22.5,22.5-6.1,3.7-14,7.1-22.5,8.6l-5.1-8c9.5-1.3,17.4-4.4,23.3-8h0ZM657.6,19.2l-6.2,6.3c-3.2-3.4-10.7-10-15.2-13.1l5.7-6.1c4.3,2.9,12.1,9.2,15.7,12.9h0Z"/>
      <path class="st0" d="M745.6,11l-4.5,1.9,5.2,3.2c-.7,1.2-1.5,2.9-2,4.4-1.6,5.4-5.1,13.5-10.6,20.2-5.8,7.1-13.1,12.6-24.5,17.2l-7.2-6.4c12.4-3.7,19.1-9,24.5-15.1,4.1-4.7,7.6-12,8.6-16.5h-17.1c-4.1,5.3-9.4,10.6-15.4,14.7l-6.8-5.1c10.6-6.4,16-14.3,18.9-19.5.9-1.5,2.2-4.3,2.7-6.3l8.9,2.9c-1.5,2.1-3,4.9-3.7,6.2,0,.1-.1.2-.2.3h12.1c1.9,0,3.9-.3,5.3-.7l.4.2c-1.2-2.4-2.9-5.6-4.4-7.8l4.8-1.9c1.5,2.2,3.7,6.1,4.8,8.3h0ZM752.9,8.3l-4.8,2.1c-1.3-2.6-3.2-6.1-4.9-8.4l4.8-1.9c1.6,2.2,3.8,6.1,4.9,8.3Z"/>
      <path class="st0" d="M780.3,11c-.9,4.1-2.9,17.4-2.9,23.5s0,2.7.2,3.9c.8-2.1,1.8-4.2,2.7-6.3l3.7,3c-1.7,5-3.6,11.2-4.4,14.4-.2.8-.3,2.2-.3,2.9s0,1.6.1,2.5l-6.9.5c-1.3-4.3-2.4-11.2-2.4-19.4s1.8-20.6,2.5-25.3c.2-1.7.5-4,.6-5.9l8.4.7c-.5,1.2-1.2,4.3-1.4,5.4h0ZM811,8.9c0,1.3-.1,3.6-.2,6.3,3.3-.3,6.5-.8,9.4-1.4v7.6c-2.9.4-6.1.8-9.4,1,.1,5.9.4,10.7.7,14.9,5,2.1,8.9,5.2,11.8,7.8l-4.2,6.4c-2.6-2.4-5-4.5-7.4-6.1-.4,5.8-3.6,10-11.8,10s-13.6-3.5-13.6-9.9,5.2-10.4,13.5-10.4,2.7,0,3.9.2c-.1-3.8-.4-8.2-.4-12.5-1.5,0-2.9,0-4.3,0-3.6,0-7-.1-10.6-.4v-7.2c3.5.4,7,.5,10.6.5s2.9,0,4.2,0c0-3,0-5.5,0-6.7s-.2-2.8-.4-4h8.7c-.2,1.2-.3,2.6-.4,3.9h0ZM799,48.1c3.7,0,5-1.9,5-5.5v-1.1c-1.6-.4-3.2-.7-4.9-.7-3.5,0-5.8,1.5-5.8,3.8s2.4,3.5,5.6,3.5h0Z"/>
      <path class="st0" d="M24.6,150.7c0,1.3-.1,2.8-.2,4.3,4-.5,8-1.3,11.2-2.2l.2,7.5c-3.5.8-7.6,1.4-11.6,1.9,0,1.8,0,3.7,0,5.5v2.2c4.1-1,8.3-1.6,11.7-1.6,9.3,0,16.7,4.9,16.7,13.2s-3.8,12.6-13.4,15c-2.8.6-5.5.8-8,1l-2.8-7.8c2.7,0,5.3,0,7.5-.4,4.9-.9,8.8-3.3,8.8-7.8s-3.6-6.6-8.9-6.6-7.7.6-11.4,1.7c.1,4.8.2,9.5.2,11.6,0,7.5-2.7,9.5-6.7,9.5-5.9,0-14.2-5.1-14.2-11.5s6.1-10.8,13.5-14c0-1.5,0-2.9,0-4.3v-5.1c-1.2,0-2.2.1-3.2.1-4.1,0-6.4,0-8.5-.3v-7.3c3.5.4,6.1.5,8.3.5s2.3,0,3.5-.1c0-2.1,0-3.9,0-4.9s-.2-4.2-.4-5.3h8.4c-.2,1.1-.4,3.7-.5,5.3h0ZM15.5,189.5c1.1,0,1.9-.5,1.9-2.6s0-4.3-.2-7.6c-3.7,2-6.2,4.5-6.2,6.6s2.9,3.5,4.4,3.5ZM57.4,160.5l-3.6,6.2c-2.9-2.5-10.9-7-14.6-8.9l3.3-5.9c4.7,2.2,11.7,6.3,14.9,8.6Z"/>
      <path class="st0" d="M94.3,151.8c-.4,1.8-.8,4.1-1.3,6.3,2-.1,3.8-.2,5.1-.2,6.4,0,11,2.9,11,11.6s-.8,17-3.5,22.3c-2,4.3-5.4,5.6-10,5.6s-5.2-.4-7.3-.9l-1.3-8c2.4.7,5.8,1.3,7.5,1.3s3.6-.6,4.6-2.6c1.6-3.5,2.4-10.8,2.4-16.8s-2.1-5.5-5.9-5.5-2.5.1-4.2.2c-2.3,9.2-6.8,23.6-12.4,32.5l-7.9-3.2c5.9-8,10.1-20.2,12.3-28.5-2.2.2-4.1.5-5.2.6-1.7.3-4.9.7-6.7,1l-.7-8.3c2.2.2,4.2,0,6.5,0,1.9,0,4.7-.2,7.8-.5.8-4.6,1.3-9,1.3-12.9l9,.9c-.4,1.6-.8,3.5-1.1,5h0ZM126.9,175l-7.7,3.6c-1.6-6.7-5.9-17.7-10.2-23.1l7.2-3.1c3.8,5.2,8.9,16.8,10.7,22.6h0Z"/>
      <path class="st0" d="M150.6,153.6c-1.5,6.7-3.7,19.5-2.1,27,.8-1.9,1.9-4.9,2.9-7l3.8,2.4c-1.8,5.2-3.4,11.4-4.2,14.8-.2,1-.4,2.3-.4,3,0,.7.1,1.7.2,2.6l-6.8.7c-1.3-3.6-3.5-12.1-3.5-19.7s1.2-19.3,2-24.3c.2-1.6.3-3.7.4-5.2l9,.9c-.5,1.5-1.1,3.7-1.4,5h0ZM181.3,151.8c0,1.3,0,4.4,0,7.8,3.6-.3,7-.7,9.7-1.2v7.9c-2.7.3-6,.5-9.7.8v2.5c0,14.3-1.1,23.1-13.2,30.8l-7-5.5c2.4-1,5.4-3,7.1-4.9,4.6-4.9,5.6-10.3,5.6-20.5v-2.1c-2.1,0-4.2,0-6.2,0s-6.4-.2-9.4-.4v-7.7c3,.4,5.9.6,9.2.6s4.1,0,6.2-.1c0-3.3-.2-6.6-.3-8.2-.1-1.5-.4-3.2-.7-4.2h8.7c-.1,1.3-.2,2.8-.2,4.2h0ZM189.5,154l-4.2,1.4c-.8-2.6-1.9-6.1-3.2-8.6l4.1-1.3c1.2,2.4,2.6,6.2,3.2,8.5h0ZM195.8,152.1l-4.1,1.3c-.9-2.6-2.1-6.1-3.3-8.5l4.1-1.3c1.2,2.4,2.6,6.2,3.3,8.5h0Z"/>
      <path class="st0" d="M233.4,146l8.2-1c.6,3.2,1.5,6.5,2.5,9.5,4.4-.7,8.6-1.6,12.4-2.8l1,7.7c-3.1.9-7,1.6-10.8,2.2,1.8,3.9,3.9,7.7,5.4,9.9,1,1.5,2.2,2.9,3.3,4.1l-3.8,5.5c-3.4-.7-11.1-1.5-16.2-1.9l.6-6.4c3,.2,7,.6,8.9.7-1.8-2.9-4-6.9-5.7-11-7.2.5-15.5.6-25.9-.2v-7.8c9,1.1,16.8,1.3,23.2.8-.5-1.4-.8-2.7-1.2-3.7-.5-1.4-1.1-3.6-1.9-5.6h0ZM222.4,183.3c0,5.1,4.6,7.3,12.9,7.3s12-.6,16.3-1.5l-.4,7.7c-3.5.7-8.9,1.5-16.3,1.5-12.4,0-20.2-4.9-20.2-13.6s1.1-7.2,3.2-11.3l7.6,1.8c-1.9,2.9-3,5.5-3,8.2h0Z"/>
      <path class="st0" d="M306.6,149.9c0,.6,0,1.5,0,2.5,5-.2,10-.7,15.4-1.6v7c-4.1.5-9.6,1-15.5,1.3v6.3c6.1-.3,11.3-.8,16.2-1.5v7.2c-5.5.6-10.3,1-16.1,1.2.1,2.3.2,4.8.4,7.2,7.6,2.2,13.5,6.3,17,9.2l-4.4,6.8c-3.3-3-7.4-6.3-12.3-8.4,0,.8,0,1.6,0,2.2,0,5.2-3.9,9.2-12,9.2s-14.8-3.7-14.8-10.1,5.6-10.4,15-10.4,2.6,0,3.8.2c-.1-1.9-.2-3.8-.2-5.6h-3.2c-3.5,0-10.4-.3-14.4-.8v-7.2c3.9.7,11.4,1.2,14.6,1.2h2.9c0-2,0-4.2,0-6.3h-2.2c-3.8,0-10.9-.5-14.9-1.1l-.2-6.9c4.4.7,11.3,1.3,15,1.3h2.4v-2.9c0-1.2-.1-3-.4-4.2h8.2c-.2,1.2-.3,2.7-.4,4.3h0ZM294.4,191.5c3.2,0,5.3-.9,5.3-4.4s0-1.5,0-2.6c-1.6-.2-3.3-.4-5-.4-4.3,0-6.7,1.7-6.7,3.8s2.2,3.7,6.4,3.7h0Z"/>
      <path class="st0" d="M349.5,152.7c5.1-.4,15.1-1.3,26.2-2.2,6.2-.5,12.9-.9,17.2-1.1v7.8c-3.2,0-8.4,0-11.7.9-7.3,1.9-12.9,9.8-12.9,17s9.3,13.6,19.7,14.1l-2.9,8.3c-12.7-.8-24.8-7.6-24.8-20.8s4.9-15.7,9-18.8c-5.7.6-18.1,1.9-25.1,3.5l-.8-8.3c2.4,0,4.8-.2,6-.3h0ZM389.2,171.4l-4.6,2.1c-1.5-3.3-2.8-5.7-4.7-8.4l4.5-1.9c1.5,2.2,3.7,5.9,4.9,8.3h0ZM396.2,168.4l-4.6,2.2c-1.6-3.3-3-5.5-5-8.2l4.4-2.1c1.5,2.1,3.8,5.7,5.1,8.1h0Z"/>
      <path class="st0" d="M12.5,302.1v-2.3c-1.6,1.5-3.4,3-5.4,4.4h24.3v18.9H11.8c-.1.8-.2,1.6-.4,2.4h20.9v16.3h-6.3v-1.7h-10.3v1.9h-6.1v-10c-1.1,3.2-2.6,6.3-4.7,8.9-.9-1.2-3.5-3.6-4.7-4.3,5.3-7,6-16.7,6-23.6v-8.3c-.7.4-1.3.9-2,1.3-.8-1.6-2.9-4-4.3-5.1,7.2-4.2,12.4-9.8,15.2-14.8h6.4c4.2,3.3,9.8,7.8,12.7,10.9l-4.6,5.3c-.8-1-1.9-2.2-3.2-3.5v3.2h-14,0ZM24.9,318.1v-2.3h-12.5c0,.7,0,1.5-.1,2.3h12.6ZM12.4,309.3v2.2h12.4v-2.2s-12.4,0-12.4,0ZM24.8,297.3c-1.8-1.7-3.6-3.5-5.4-4.9-1.3,1.6-2.7,3.2-4.2,4.9h9.7ZM15.8,330.7v4.3h10.3v-4.3h-10.3ZM41.8,327h-6.8v-34.2h6.8v34.2ZM55.2,286.7v46.9c0,4-.8,6-3.2,7.1-2.3,1.2-6.1,1.5-11.3,1.5-.3-2-1.3-5.3-2.4-7.3,3.6.1,7.2.1,8.3.1s1.5-.4,1.5-1.4v-46.8h7Z"/>
      <path class="st0" d="M125.2,332.6v7.2h-54.9v-7.2h30.2c2.7-7.3,5.6-18.6,6.9-27.4l8.3,1.5c-2.1,8.9-5,18.8-7.6,25.9,0,0,17.1,0,17.1,0ZM123.5,303.2h-51.2v-7.1h21.6v-10.6h7.5v10.6h22.2v7.1ZM85.2,330.7c-.4-6.3-2.6-16-5.2-23.4l6.9-1.8c2.9,7.5,5.1,16.9,5.7,23.3l-7.4,1.9Z"/>
      <path class="st0" d="M147.8,331.6l4.1-5.7c2.6,2.5,5.7,4.6,9.9,4.6s8-2.7,8-7.6-3-7.6-7.6-7.6-4.1.7-6.7,2.4l-4.1-2.6,1.2-21.9h24v7.5h-16.3l-.9,9.5c1.8-.8,3.3-1.2,5.4-1.2,7.5,0,13.8,4.2,13.8,13.6s-7.4,15.2-15.7,15.2-11.8-2.8-15.2-6.1h0Z"/>
      <path class="st0" d="M199.9,314.8c0-14.8,6-22.5,15.2-22.5s15.2,7.8,15.2,22.5-5.9,22.9-15.2,22.9-15.2-8.1-15.2-22.9h0ZM221.9,314.8c0-12.1-2.9-15.5-6.7-15.5s-6.8,3.4-6.8,15.5,2.9,16,6.8,16,6.7-3.8,6.7-16h0Z"/>
      <path class="st0" d="M303.4,334.2c0,3.8-.8,5.5-3.2,6.7-2.3,1.1-5.8,1.2-11,1.2-.2-1.9-1.2-4.9-2.2-6.7,3.1.2,6.7.1,7.7.1s1.5-.4,1.5-1.4v-39h-32.4v14.3c0,10-1,24.2-7.6,33-1.2-1.3-4.2-3.8-5.8-4.6,5.8-8,6.3-19.6,6.3-28.5v-21h46.8v45.8h0ZM276,309.4v-3.9h-9v-5.5h9v-4h6.9v4h9.5v5.5h-9.5v3.9h10.7v5.6h-27.9v-5.6h10.3ZM274.5,334.9v3.3h-6.6v-19.7h23.4v16.5h-16.8ZM274.5,323.9v5.6h10.1v-5.6h-10.1Z"/>
      <path class="st0" d="M381.6,329.3h-20.8v13h-7.5v-13h-27.3v-6.9h9.6v-16h17.7v-7.2h-13c-2.5,4.3-5.4,8.2-8.3,11-1.4-1.2-4.5-3.6-6.2-4.7,5.5-4.6,10.1-12.4,12.7-20.2l7.3,1.9c-.5,1.7-1.2,3.3-2,5h34.3v7h-17.4v7.2h16v6.7h-16v9.2h20.8v6.9h0ZM353.4,322.4v-9.2h-10.5v9.2h10.5Z"/>
      <path class="st0" d="M423.7,294.3c5.8-.3,11.8-.8,17.2-1.8v7c-5.8.8-13.3,1.3-19.9,1.5-1,2.2-2.2,4.4-3.5,6.2,1.6-.7,4.9-1.2,6.9-1.2,3.7,0,6.7,1.6,8.1,4.7,3.2-1.5,5.7-2.5,8.2-3.6,2.4-1,4.5-2,6.7-3.2l3,7c-1.9.5-5.2,1.8-7.2,2.5-2.7,1.1-6.2,2.4-9.9,4.1,0,3.4.2,7.9.2,10.7h-7.3c.2-1.8.2-4.7.3-7.4-4.6,2.6-7,5-7,8s2.9,4.3,8.8,4.3,11.9-.7,17.2-1.7l-.2,7.8c-4,.5-11.5,1-17.2,1-9.5,0-16.6-2.3-16.6-10.1s7.3-12.6,14.2-16.2c-.9-1.5-2.5-2.1-4.3-2.1-3.4,0-7.2,1.9-9.5,4.2-1.8,1.8-3.6,4-5.6,6.7l-6.5-4.9c6.4-5.9,10.7-11.3,13.4-16.8h-.8c-2.5,0-6.9-.1-10.3-.4v-7.1c3.1.5,7.6.7,10.7.7h2.9c.7-2.4,1.1-4.8,1.2-7l8,.7c-.3,1.5-.7,3.5-1.5,6.1h0Z"/>
      <path class="st0" d="M481,328.5c2.4,4.1,6.8,5.9,13.1,6.1,7.5.4,22.3.2,30.8-.5-.8,1.6-1.8,4.8-2.1,6.7-7.7.4-21.1.5-28.7.2-7.3-.3-12.3-2.1-15.9-6.8-2.3,2.4-4.7,4.8-7.6,7.4l-3.4-6.9c2.2-1.6,4.9-3.6,7.2-5.6v-13.4h-6.3v-6.6h12.9v19.4h0ZM475.7,300.9c-1.3-3-5-7.4-8.1-10.4l5.7-3.6c3.2,2.9,7,7,8.5,10l-6.1,4.1h0ZM482.5,320.8c1.1-.2,2.2-.5,3.5-.8v-30.3l3.5.9c3-1.5,6.1-3.5,8.1-5.2l4.8,5.2v-1.5h19.7v30.8c0,2.9-.5,4.6-2.4,5.6-1.9,1-4.4,1.2-7.9,1.2-.2-1.8-1.1-4.5-1.9-6.1,2,0,4.1,0,4.7,0s1-.2,1-1v-24.6h-6.5v37.6h-6.6v-41.8c-3,1.7-6.5,3.3-9.7,4.6v22.9c2.5-.6,5-1.3,7.6-1.9l.8,6.2c-5.6,1.6-11.8,3.2-16.6,4.5l-1.9-6.4h0Z"/>
      <path class="st0" d="M577.3,310.1c-2.8,2.4-8.4,7.6-9.9,9.2.5,0,1.6.2,2.3.4,1.8.5,2.9,1.9,3.6,4.1.5,1.6,1.2,3.9,1.8,5.5.5,1.9,1.9,2.9,4.3,2.9,4.7,0,8.9-.5,11.9-1.1l-.5,8c-2.5.5-8.7.9-11.9.9-5.8,0-8.9-1.3-10.4-5.2-.6-1.8-1.3-4.7-1.8-6.2-.7-2.1-2-2.9-3.2-2.9s-2.5,1-4,2.4c-2.1,2.1-6.6,7.1-10.8,12.4l-7.2-5c1.1-.9,2.5-2.2,4.2-3.8,3.1-3.2,15.5-15.5,21.1-21.4-4.3.1-11.5.8-15,1.1-2.1.2-3.9.5-5.2.7l-.7-8.4c1.4.1,3.6.2,5.8.2,2.9,0,16.6-.6,21.7-1.3,1.2-.1,2.8-.4,3.5-.7l4.4,5c-1.6,1.1-2.9,2.2-3.9,3.1h0ZM579.2,290.7l-1,7.1c-6.4-.5-17.7-1.8-24.9-3l1.2-7c6.8,1.3,18.5,2.5,24.8,3Z"/>
      <path class="st0" d="M640,292.1c0,.6,0,1.5,0,2.5,5-.2,10-.7,15.4-1.6v7c-4.1.5-9.6,1-15.5,1.3v6.3c6.1-.3,11.3-.8,16.2-1.5v7.2c-5.5.6-10.3,1-16.1,1.2.1,2.3.2,4.8.4,7.2,7.6,2.2,13.5,6.3,17,9.2l-4.4,6.8c-3.3-3-7.4-6.3-12.3-8.4,0,.8,0,1.6,0,2.2,0,5.2-3.9,9.2-12,9.2s-14.8-3.7-14.8-10.1,5.6-10.4,15-10.4,2.6,0,3.8.2c-.1-1.9-.2-3.8-.2-5.6h-3.2c-3.5,0-10.4-.3-14.4-.8v-7.2c3.9.7,11.4,1.2,14.6,1.2h2.9c0-2,0-4.2,0-6.3h-2.2c-3.8,0-10.9-.5-14.9-1.1l-.2-6.9c4.4.7,11.3,1.3,15,1.3h2.4v-2.9c0-1.2-.1-3-.4-4.2h8.2c-.2,1.2-.3,2.7-.4,4.3h0ZM627.7,333.8c3.2,0,5.3-.9,5.3-4.4s0-1.5,0-2.6c-1.6-.2-3.3-.4-5-.4-4.3,0-6.7,1.7-6.7,3.8s2.2,3.7,6.4,3.7h0Z"/>
      <path class="st0" d="M690.8,296.9c-.2,6.6-.7,20.2-.7,27.7s3.6,8.1,8.4,8.1c10,0,16.4-5.8,20.8-12.4l5.5,6.7c-3.9,5.8-12.5,14-26.3,14s-16.4-4.4-16.4-14.8.6-24.1.6-29.3-.2-5.8-.8-8.2h9.8c-.4,2.7-.7,5.8-.8,8.2h0Z"/>
      <path class="st0" d="M762.8,294.2c-.1.7-.3,1.5-.5,2.3,3.4-.5,6.8-1.2,10.1-1.9v7.6c-3.6.8-7.8,1.5-11.8,2-.5,2.6-1.2,5.3-1.8,7.8-2.2,8.5-6.3,20.9-9.7,28.1l-8.4-2.9c3.6-6.1,8.3-18.8,10.5-27.3.4-1.6.9-3.3,1.3-5.1-1.4,0-2.7.1-4,.1-2.9,0-5.2-.1-7.3-.2l-.2-7.6c3.1.4,5.2.5,7.6.5s3.6,0,5.5-.2c.2-1.3.4-2.5.5-3.5.2-2.2.4-4.7.2-6.1l9.3.7c-.5,1.6-1,4.4-1.3,5.7h0ZM770,327.1c0,2.7,1.8,4.7,8.3,4.7s8.3-.5,12.6-1.3l-.3,7.8c-3.4.4-7.5.8-12.4.8-10.2,0-15.7-3.5-15.7-9.7s.6-5.7,1.1-8.1l7.2.7c-.5,1.7-.8,3.7-.8,5h0ZM779.3,306.2c3.5,0,7.1.2,10.7.5l-.2,7.3c-3-.4-6.7-.7-10.4-.7s-7.9.2-11.7.6v-7.1c3.4-.3,7.8-.6,11.7-.6h0Z"/>
    </g>
  </g>
</svg>